<svg xmlns="http://www.w3.org/2000/svg" xmlns:xlink="http://www.w3.org/1999/xlink" width="80" height="80" viewBox="0 0 80 80"><defs><style>.a{fill:#4b7cff;}.b{fill:#fff;}.c{filter:url(#a);}</style><filter id="a" x="0" y="0" width="80" height="80" filterUnits="userSpaceOnUse"><feOffset dy="3" input="SourceAlpha"/><feGaussianBlur stdDeviation="7.5" result="b"/><feFlood flood-color="#1a3c44" flood-opacity="0.161"/><feComposite operator="in" in2="b"/><feComposite in="SourceGraphic"/></filter></defs><g transform="translate(22.5 19.5)"><g class="c" transform="matrix(1, 0, 0, 1, -22.5, -19.5)"><circle class="a" cx="17.5" cy="17.5" r="17.5" transform="translate(22.5 19.5)"/></g><g transform="translate(6.7 8)"><path class="b" d="M15.241,4.721,13.564,7.757l6.412,6.389L11.62,22.225,4.715,15.491,2.25,14.975l11.636-11.6ZM6.9,14.146H16.22L11.561,9.51Z" transform="translate(0.324 -3.375)"/><path class="b" d="M28.346,21.375s2.569,2.787,2.569,4.173a2.57,2.57,0,0,1-5.138,0C25.777,24.162,28.346,21.375,28.346,21.375Z" transform="translate(-25.777 -9.775)"/></g></g></svg>