<svg xmlns="http://www.w3.org/2000/svg" xmlns:xlink="http://www.w3.org/1999/xlink" width="35.9" height="36.174" viewBox="0 0 35.9 36.174"><defs><style>.a{fill:#fff;}.b{filter:url(#a);}</style><filter id="a" x="0" y="0" width="35.9" height="36.174" filterUnits="userSpaceOnUse"><feOffset dy="3" input="SourceAlpha"/><feGaussianBlur stdDeviation="3" result="b"/><feFlood flood-opacity="0.161"/><feComposite operator="in" in2="b"/><feComposite in="SourceGraphic"/></filter></defs><g transform="translate(9 6)"><g class="b" transform="matrix(1, 0, 0, 1, -9, -6)"><path class="a" d="M8.95,0A9.029,9.029,0,0,0,0,9.087a9.029,9.029,0,0,0,8.95,9.087A9.029,9.029,0,0,0,17.9,9.087,9.029,9.029,0,0,0,8.95,0Zm4.99,6.057L8.432,12.348a.682.682,0,0,1-.945.081l-3.442-2.8a.706.706,0,0,1-.107-.982A.681.681,0,0,1,4.9,8.541l2.932,2.381,5.074-5.8a.681.681,0,0,1,.972-.058A.707.707,0,0,1,13.939,6.057Z" transform="translate(9 6)"/></g></g></svg>