<svg xmlns="http://www.w3.org/2000/svg" width="183.933" height="145.878" viewBox="0 0 183.933 145.878"><defs><style>.a{fill:#fff;}</style></defs><path class="a" d="M3.171,6h177.59a3.17,3.17,0,0,1,3.171,3.171V148.707a3.17,3.17,0,0,1-3.171,3.171H3.171A3.17,3.17,0,0,1,0,148.707V9.171A3.17,3.17,0,0,1,3.171,6ZM6.343,145.535H177.59V12.343H6.343Z" transform="translate(0 -6)"/><path class="a" d="M28.092,52.321A17.661,17.661,0,1,1,45.752,34.661,17.679,17.679,0,0,1,28.092,52.321Zm0-28.979A11.318,11.318,0,1,0,39.41,34.664,11.333,11.333,0,0,0,28.092,23.343Z" transform="translate(105.101 17.884)"/><path class="a" d="M151.877,95.937a3.163,3.163,0,0,1-2.093-.79L98.051,49.6,65.381,82.269A3.171,3.171,0,0,1,60.9,77.785L76.141,62.541,47.025,30.657,11.314,63.394A3.172,3.172,0,1,1,7.03,58.716L45.085,23.832A3.271,3.271,0,0,1,47.368,23a3.177,3.177,0,0,1,2.2,1.031L80.628,58.05,95.669,43.009a3.174,3.174,0,0,1,4.338-.14l53.965,47.515a3.171,3.171,0,0,1-2.1,5.553Z" transform="translate(9.857 30.913)"/></svg>