<svg xmlns="http://www.w3.org/2000/svg" width="21.018" height="14.297" viewBox="0 0 21.018 14.297"><defs><style>.a{fill:#fff;}</style></defs><path class="a" d="M.469,138.428a.464.464,0,0,0-.469.459v1.519a.464.464,0,0,0,.469.459.464.464,0,0,0,.469-.459v-1.519A.464.464,0,0,0,.469,138.428Z" transform="translate(0 -132.498)"/><path class="a" d="M27.742,138.428a.464.464,0,0,0-.469.459v1.519a.469.469,0,0,0,.937,0v-1.519A.464.464,0,0,0,27.742,138.428Z" transform="translate(-25.447 -132.498)"/><path class="a" d="M55.015,128.635a.464.464,0,0,0-.469.459v2.8a.469.469,0,0,0,.937,0v-2.8A.464.464,0,0,0,55.015,128.635Z" transform="translate(-50.895 -123.348)"/><path class="a" d="M82.287,117.063a.464.464,0,0,0-.469.459v4.323a.469.469,0,0,0,.937,0v-4.323A.464.464,0,0,0,82.287,117.063Z" transform="translate(-76.341 -112.536)"/><path class="a" d="M109.561,96.588a.464.464,0,0,0-.469.459v7.01a.469.469,0,0,0,.937,0v-7.01A.464.464,0,0,0,109.561,96.588Z" transform="translate(-101.79 -93.404)"/><path class="a" d="M136.833,48.071a.464.464,0,0,0-.469.459V61.908a.469.469,0,0,0,.937,0V48.53A.464.464,0,0,0,136.833,48.071Z" transform="translate(-127.236 -48.071)"/><path class="a" d="M164.106,65.43a.464.464,0,0,0-.469.459v11.1a.469.469,0,0,0,.937,0v-11.1A.464.464,0,0,0,164.106,65.43Z" transform="translate(-152.684 -64.291)"/><path class="a" d="M191.378,100.148a.464.464,0,0,0-.469.459v6.543a.469.469,0,0,0,.937,0v-6.543A.464.464,0,0,0,191.378,100.148Z" transform="translate(-178.13 -96.731)"/><path class="a" d="M218.652,121.067a.464.464,0,0,0-.469.459v3.8a.469.469,0,0,0,.937,0v-3.8A.464.464,0,0,0,218.652,121.067Z" transform="translate(-203.579 -116.277)"/><path class="a" d="M245.925,129.971a.464.464,0,0,0-.469.459v2.629a.469.469,0,0,0,.937,0V130.43A.464.464,0,0,0,245.925,129.971Z" transform="translate(-229.026 -124.596)"/><path class="a" d="M273.2,138.428a.464.464,0,0,0-.468.459v1.519a.469.469,0,0,0,.937,0v-1.519A.464.464,0,0,0,273.2,138.428Z" transform="translate(-254.473 -132.498)"/><path class="a" d="M300.469,138.428a.464.464,0,0,0-.469.459v1.519a.469.469,0,0,0,.937,0v-1.519A.464.464,0,0,0,300.469,138.428Z" transform="translate(-279.919 -132.498)"/></svg>