<svg xmlns="http://www.w3.org/2000/svg" width="17.361" height="27.264" viewBox="0 0 17.361 27.264"><defs><style>.a{fill:#fff;stroke:#fff;stroke-width:0.2px;}</style></defs><g transform="translate(0.1 0.1)"><path class="a" d="M13.536,28a.53.53,0,0,1,.536.525v3.149a7.51,7.51,0,0,0,15.016,0V28.525a.536.536,0,0,1,1.073,0v3.149a8.48,8.48,0,0,1-8.044,8.37v2.651H24.8a.525.525,0,1,1,0,1.05H18.363a.525.525,0,1,1,0-1.05h2.681V40.043A8.48,8.48,0,0,1,13,31.673V28.525A.53.53,0,0,1,13.536,28Z" transform="translate(-13 -16.68)"/><path class="a" d="M22.447,18.6A4.453,4.453,0,0,1,18,14.15v-9.7a4.447,4.447,0,0,1,8.895,0v9.7A4.453,4.453,0,0,1,22.447,18.6Z" transform="translate(-14.004)"/></g></svg>