<svg xmlns="http://www.w3.org/2000/svg" xmlns:xlink="http://www.w3.org/1999/xlink" width="85.219" height="85.219" viewBox="0 0 85.219 85.219"><defs><style>.a{fill:#4b7cff;}.b,.c{fill:#fff;}.c{stroke:#fff;opacity:0;}.d{stroke:none;}.e{fill:none;}.f{filter:url(#a);}</style><filter id="a" x="0" y="0" width="85.219" height="85.219" filterUnits="userSpaceOnUse"><feOffset dy="3" input="SourceAlpha"/><feGaussianBlur stdDeviation="3" result="b"/><feFlood flood-opacity="0.161"/><feComposite operator="in" in2="b"/><feComposite in="SourceGraphic"/></filter></defs><g transform="translate(9 6)"><g class="f" transform="matrix(1, 0, 0, 1, -9, -6)"><circle class="a" cx="33.609" cy="33.609" r="33.609" transform="translate(9 6)"/></g><path class="b" d="M12.828.533a.5.5,0,0,1,.8,0l12.228,16.3a.5.5,0,0,1-.4.8H1a.5.5,0,0,1-.4-.8Z" transform="translate(45.555 20) rotate(90)"/><g class="c" transform="translate(26.918 31.793)"><rect class="d" width="1.707" height="2.561" rx="0.854"/><rect class="e" x="0.5" y="0.5" width="0.707" height="1.561" rx="0.354"/></g><g class="c" transform="translate(26.918 31.793)"><rect class="d" width="1.707" height="2.561" rx="0.854"/><rect class="e" x="0.5" y="0.5" width="0.707" height="1.561" rx="0.354"/></g></g></svg>