<svg xmlns="http://www.w3.org/2000/svg" width="6.506" height="6.004" viewBox="0 0 6.506 6.004"><defs><style>.a,.b{fill:#4b7cff;}.a{stroke:#4b7cff;stroke-width:0.3px;}</style></defs><g transform="translate(0.15 0.15)"><path class="a" d="M56.369,52.574a2.626,2.626,0,0,0-1.651-.582,2.855,2.855,0,0,0,0,5.7,2.65,2.65,0,0,0,1.928-.835.185.185,0,0,0,0-.254.166.166,0,0,0-.242,0,2.317,2.317,0,0,1-1.686.73,2.5,2.5,0,0,1,0-4.987,2.413,2.413,0,0,1,2.29,1.8.17.17,0,0,0,.212.122.181.181,0,0,0,.117-.222A2.879,2.879,0,0,0,56.369,52.574Z" transform="translate(-51.991 -51.992)"/><path class="b" d="M207.936,127.574a.237.237,0,0,0-.336.336l.893.893a.237.237,0,0,0,.336,0l.893-.893a.237.237,0,1,0-.336-.336l-.725.725Z" transform="translate(-203.435 -125.41)"/></g></svg>