<svg xmlns="http://www.w3.org/2000/svg" viewBox="0 0 22 22" width="22" height="22">
	<style>
		tspan { white-space:pre }
		.shp0 { fill: #ffffff } 
	</style>
	<g id="Layer">
		<path id="Layer" fill-rule="evenodd" class="shp0" d="M10.99 0.04C12.4 0.04 13.8 0.32 15.11 0.86C16.42 1.4 17.61 2.19 18.61 3.19C19.61 4.19 20.4 5.38 20.94 6.69C21.49 7.99 21.76 9.39 21.76 10.81C21.76 15.16 19.14 19.08 15.12 20.75C11.1 22.42 6.47 21.5 3.39 18.42C0.31 15.35 -0.61 10.72 1.05 6.7C2.72 2.67 6.64 0.05 10.99 0.04ZM11 19.42C12.13 19.42 13.25 19.2 14.3 18.76C15.34 18.33 16.29 17.7 17.09 16.9C17.89 16.1 18.52 15.15 18.96 14.1C19.39 13.06 19.61 11.94 19.61 10.81C19.61 7.33 17.51 4.19 14.3 2.85C11.08 1.52 7.37 2.26 4.91 4.72C2.45 7.18 1.71 10.89 3.04 14.1C4.38 17.32 7.52 19.42 11 19.42ZM14.77 9.73C14.55 9.73 14.34 9.69 14.15 9.61C13.95 9.53 13.78 9.41 13.63 9.26C13.48 9.11 13.36 8.93 13.28 8.74C13.19 8.54 13.15 8.33 13.15 8.12C13.15 7.47 13.55 6.88 14.15 6.63C14.75 6.38 15.45 6.52 15.91 6.98C16.37 7.44 16.51 8.13 16.26 8.74C16.01 9.34 15.42 9.73 14.77 9.73ZM7.24 9.73C7.02 9.73 6.81 9.69 6.62 9.61C6.42 9.53 6.24 9.41 6.09 9.26C5.94 9.11 5.82 8.93 5.74 8.74C5.66 8.54 5.62 8.33 5.62 8.12C5.62 7.47 6.01 6.88 6.62 6.63C7.22 6.38 7.91 6.52 8.37 6.98C8.84 7.44 8.97 8.13 8.72 8.74C8.47 9.34 7.89 9.73 7.23 9.73L7.24 9.73ZM11 16.73C10.41 16.73 9.82 16.64 9.26 16.46C8.69 16.29 8.16 16.03 7.67 15.69C7.18 15.36 6.75 14.96 6.38 14.49C6.01 14.03 5.72 13.52 5.5 12.96L16.5 12.96C16.29 13.52 15.99 14.03 15.62 14.49C15.25 14.96 14.82 15.36 14.33 15.7C13.84 16.03 13.31 16.29 12.74 16.47C12.18 16.64 11.59 16.73 11 16.73L11 16.73Z" />
	</g>
</svg>