<svg xmlns="http://www.w3.org/2000/svg" xmlns:xlink="http://www.w3.org/1999/xlink" width="80" height="80" viewBox="0 0 80 80"><defs><style>.a{fill:#4b7cff;}.b{fill:#fff;}.c{filter:url(#a);}</style><filter id="a" x="0" y="0" width="80" height="80" filterUnits="userSpaceOnUse"><feOffset dy="3" input="SourceAlpha"/><feGaussianBlur stdDeviation="7.5" result="b"/><feFlood flood-color="#1a3c44" flood-opacity="0.161"/><feComposite operator="in" in2="b"/><feComposite in="SourceGraphic"/></filter></defs><g transform="translate(22.5 19.5)"><g class="c" transform="matrix(1, 0, 0, 1, -22.5, -19.5)"><circle class="a" cx="17.5" cy="17.5" r="17.5" transform="translate(22.5 19.5)"/></g><path class="b" d="M13.752,3A10.763,10.763,0,1,0,24.526,13.763,10.758,10.758,0,0,0,13.752,3Zm.011,19.374a8.611,8.611,0,1,1,8.611-8.611A8.608,8.608,0,0,1,13.763,22.374Zm3.767-9.687a1.614,1.614,0,1,0-1.614-1.614A1.612,1.612,0,0,0,17.53,12.687Zm-7.534,0a1.614,1.614,0,1,0-1.614-1.614A1.612,1.612,0,0,0,10,12.687Zm3.767,7a5.916,5.916,0,0,0,5.5-3.767h-11A5.916,5.916,0,0,0,13.763,19.683Z" transform="translate(3.737 3.545)"/></g></svg>