<svg xmlns="http://www.w3.org/2000/svg" width="17.383" height="16.3" viewBox="0 0 17.383 16.3"><defs><style>.a{fill:#4b7cff;stroke:#4b7cff;stroke-width:0.3px;}</style></defs><g transform="translate(0.15 0.15)"><path class="a" d="M.489,228.223a.487.487,0,0,1,.489.489v4.452a2.2,2.2,0,0,0,2.193,2.193H13.911a2.2,2.2,0,0,0,2.193-2.193v-4.524a.489.489,0,1,1,.979,0v4.524a3.176,3.176,0,0,1-3.172,3.172H3.172A3.176,3.176,0,0,1,0,233.164v-4.452A.49.49,0,0,1,.489,228.223Z" transform="translate(0 -220.336)"/><path class="a" d="M142.69,25.393l-2.277,2.277v-9.93a.489.489,0,0,0-.979,0v9.93l-2.277-2.277a.493.493,0,0,0-.344-.145.472.472,0,0,0-.344.145.488.488,0,0,0,0,.692L139.58,29.2a.5.5,0,0,0,.344.145.474.474,0,0,0,.344-.145l3.111-3.111a.488.488,0,1,0-.689-.692Z" transform="translate(-131.383 -17.25)"/></g></svg>