<svg xmlns="http://www.w3.org/2000/svg" xmlns:xlink="http://www.w3.org/1999/xlink" width="113" height="113" viewBox="0 0 113 113"><defs><style>.a{fill:#fff;}.b{clip-path:url(#a);}.c{fill:#4481c2;}.d{fill:#285680;}.e{fill:#2c3e50;}.f{fill:#bcc2c6;}.g{fill:#ce966a;}</style><clipPath id="a"><rect class="a" width="113" height="113" transform="translate(382 306)"/></clipPath></defs><g class="b" transform="translate(-382 -306)"><g transform="translate(381.971 313.78)"><path class="c" d="M103.285,19.488H91.593a1.949,1.949,0,0,1-1.949-1.949V11.693H.029v47.1A3.9,3.9,0,0,0,1.267,61.62L37.845,96.367a3.94,3.94,0,0,0,2.689,1.072H50.668A39,39,0,0,0,88.592,67.506a1.949,1.949,0,0,1,1.7-1.5c14.655-1.637,22.742-11.381,22.742-23.132V29.232A9.744,9.744,0,0,0,103.285,19.488Zm1.949,23.385c0,7.094-4.852,12.589-13.076,14.986a1.98,1.98,0,0,1-2.514-1.89V29.232a1.949,1.949,0,0,1,1.949-1.949h11.693a1.949,1.949,0,0,1,1.949,1.949Z"/><path class="d" d="M89.644,11.693c0,6.458-20.072,11.693-44.822,11.693S.029,18.151.029,11.693,20.072,0,44.822,0,89.644,5.234,89.644,11.693Z"/><path class="e" d="M29.232,50.668a7.8,7.8,0,0,1-7.8-7.8,1.949,1.949,0,1,1,3.9,0,3.9,3.9,0,0,0,7.8,0,1.949,1.949,0,1,1,3.9,0A7.8,7.8,0,0,1,29.232,50.668Z"/><path class="e" d="M60.412,50.668a7.8,7.8,0,0,1-7.8-7.8,1.949,1.949,0,1,1,3.9,0,3.9,3.9,0,0,0,7.8,0,1.949,1.949,0,1,1,3.9,0A7.8,7.8,0,0,1,60.412,50.668Z"/><path class="e" d="M44.822,66.259a11.96,11.96,0,0,1-9.315-4.628,1.949,1.949,0,1,1,3.04-2.436,7.8,7.8,0,0,0,12.55,0,1.949,1.949,0,1,1,3.04,2.436A11.96,11.96,0,0,1,44.822,66.259Z"/><path class="f" d="M38.956,97.088a3.755,3.755,0,0,1-1.111-.721L1.267,61.62a3.652,3.652,0,0,1-.818-1.15A38.958,38.958,0,0,1,38.956,97.088Z"/><ellipse class="g" cx="38.8" cy="5.846" rx="38.8" ry="5.846" transform="translate(6.022 11.693)"/></g></g></svg>