<svg xmlns="http://www.w3.org/2000/svg" xmlns:xlink="http://www.w3.org/1999/xlink" width="113" height="113" viewBox="0 0 113 113"><defs><style>.a{fill:#fff;}.b{clip-path:url(#a);}.c{fill:#ff5364;}.d{fill:#de4d60;}.e{fill:#bcc2c6;}.f{fill:#fcd6ac;}.g{fill:#ef9272;}.h{fill:#884b9c;}</style><clipPath id="a"><rect class="a" width="113" height="113" transform="translate(382 439)"/></clipPath></defs><g class="b" transform="translate(-382 -439)"><g transform="translate(382 452.182)"><path class="c" d="M99.817,43.317A43.317,43.317,0,1,1,56.5,0a42.172,42.172,0,0,1,6.761.546L96.577,26.913A42.823,42.823,0,0,1,99.817,43.317Z"/><path class="d" d="M99.817,43.317A43.317,43.317,0,0,1,15.086,56.01,42.125,42.125,0,0,0,89.5,28.947a42.674,42.674,0,0,0-.49-6.441l7.665,4.614a42.787,42.787,0,0,1,3.145,16.2Z"/><path class="e" d="M96.577,26.913l-.132.056c-17.572.264-30.566-10.415-33.2-26.254V.7l.019-.151Z"/><circle class="f" cx="6.592" cy="6.592" r="6.592" transform="translate(58.383 26.367)"/><circle class="f" cx="5.65" cy="5.65" r="5.65" transform="translate(33.9 18.833)"/><circle class="g" cx="4.708" cy="4.708" r="4.708" transform="translate(56.5 69.683)"/><path class="h" d="M113,43.317c0,4.9-4.8,9.266-13.9,12.618-.433.151-.868.313-1.3.452A139.629,139.629,0,0,1,56.5,62.15a139.631,139.631,0,0,1-41.3-5.763c-.431-.139-.866-.3-1.3-.452C4.8,52.583,0,48.213,0,43.317S4.8,34.051,13.9,30.7a1.91,1.91,0,0,1,1.168-.038,36.045,36.045,0,0,0-1.017,4.03C7.5,37.271,3.767,40.4,3.767,43.317S7.5,49.362,14.05,51.942c.377.151.772.3,1.168.452,10.208,3.8,25.255,5.989,41.283,5.989S87.575,56.2,97.783,52.394c.4-.151.791-.3,1.168-.452,6.554-2.58,10.283-5.707,10.283-8.626S105.5,37.271,98.95,34.691c-.283-1.356-.621-2.712-1.017-4.012A1.665,1.665,0,0,1,99.1,30.7c9.1,3.352,13.9,7.722,13.9,12.618Z"/></g></g></svg>