<svg xmlns="http://www.w3.org/2000/svg" xmlns:xlink="http://www.w3.org/1999/xlink" width="113" height="113" viewBox="0 0 113 113"><defs><style>.a{fill:#fff;}.b{clip-path:url(#a);}.c{fill:#f19b1f;}.d{fill:#d15627;}.e{fill:#ebeff0;}.f{fill:#35495e;}.g{fill:#ff5364;}.h{fill:#e54c3c;}.i{fill:#547580;}.j{fill:#bcc2c6;}</style><clipPath id="a"><rect class="a" width="113" height="113" transform="translate(249 705)"/></clipPath></defs><g class="b" transform="translate(-249 -705)"><g transform="translate(254.856 705.006)"><g transform="translate(-1.948 -1.948)"><path class="c" d="M103.253,64.289c0,.764-.019,1.508-.058,2.274a3.507,3.507,0,0,1-1.013,2.3l-45,45a3.481,3.481,0,0,1-2.279,1.011c-.773.043-1.52.062-2.3.062A50.372,50.372,0,0,1,3.179,75.62,50.962,50.962,0,0,1,7.37,41.5a1.886,1.886,0,0,0,.08-1.574C4.169,31.714-1.169,14.884,4.325,3.179A2.235,2.235,0,0,1,6.682,1.972c4.584.736,17.933,3.7,26.894,14a1.948,1.948,0,0,0,2.129.569,50.652,50.652,0,0,1,33.789,0,1.948,1.948,0,0,0,2.129-.567c8.962-10.3,22.31-13.265,26.894-14a2.235,2.235,0,0,1,2.357,1.208c5.5,11.7.156,28.535-3.117,36.742a1.886,1.886,0,0,0,.08,1.574A50.278,50.278,0,0,1,103.253,64.289Z"/><path class="d" d="M25.948,19.256A37.21,37.21,0,0,0,11.473,11.1a1.2,1.2,0,0,0-1.57.974,46.425,46.425,0,0,0,2.143,17.339,1.253,1.253,0,0,0,2.338.195,13.088,13.088,0,0,1,4.237-5.4,18.173,18.173,0,0,1,6.75-2.829,1.251,1.251,0,0,0,.577-2.127Z"/><path class="d" d="M79.253,19.256A37.21,37.21,0,0,1,93.728,11.1a1.2,1.2,0,0,1,1.57.974,46.425,46.425,0,0,1-2.143,17.339,1.253,1.253,0,0,1-2.338.195,13.088,13.088,0,0,0-4.237-5.4,18.173,18.173,0,0,0-6.75-2.829,1.251,1.251,0,0,1-.577-2.127Z"/><circle class="e" cx="11.689" cy="11.689" r="11.689" transform="translate(19.482 35.067)"/><circle class="f" cx="5.844" cy="5.844" r="5.844" transform="translate(25.326 40.911)"/><circle class="a" cx="3.896" cy="3.896" r="3.896" transform="translate(23.378 38.963)"/><circle class="e" cx="11.689" cy="11.689" r="11.689" transform="translate(62.341 35.067)"/><circle class="f" cx="5.844" cy="5.844" r="5.844" transform="translate(68.186 40.911)"/><circle class="a" cx="3.896" cy="3.896" r="3.896" transform="translate(66.238 38.963)"/><path class="g" d="M58.445,75.18v2.747a5.844,5.844,0,0,1-11.689,0V75.18A9.8,9.8,0,0,0,52.6,66.238,9.8,9.8,0,0,0,58.445,75.18Z"/><path class="f" d="M62.341,77.927A11.689,11.689,0,0,1,52.6,72.694a11.689,11.689,0,0,1-21.43-6.456,1.948,1.948,0,0,1,3.9,0,7.793,7.793,0,0,0,15.585,0,1.948,1.948,0,0,1,3.9,0,7.793,7.793,0,0,0,15.585,0,1.948,1.948,0,0,1,3.9,0A11.7,11.7,0,0,1,62.341,77.927Z"/><path class="h" d="M52.6,66.238a3.022,3.022,0,0,1-2.517-1.348l-2.922-4.4A2.57,2.57,0,0,1,49.3,56.5h6.614a2.57,2.57,0,0,1,2.143,3.992l-2.922,4.4a3.022,3.022,0,0,1-2.533,1.35Z"/><path class="i" d="M17.533,75.978a1.948,1.948,0,0,1-.559-3.816l19.482-5.844a1.948,1.948,0,0,1,1.118,3.733L18.093,75.895a1.927,1.927,0,0,1-.559.084Z"/><path class="i" d="M25.326,89.616A1.948,1.948,0,0,1,24.042,86.2L39.628,72.565A1.949,1.949,0,1,1,42.2,75.5L26.61,89.134a1.948,1.948,0,0,1-1.284.481Z"/><path class="i" d="M84.317,74.967a1.915,1.915,0,0,1-.559-.082L67.627,70.054a1.948,1.948,0,0,1,1.118-3.733l16.131,4.831a1.948,1.948,0,0,1-.559,3.815Z"/><path class="i" d="M72.45,83.128a1.948,1.948,0,0,1-1.282-.481L63.006,75.5a1.949,1.949,0,0,1,2.568-2.932l8.163,7.15a1.948,1.948,0,0,1-1.286,3.413Z"/><path class="j" d="M102.824,67.933a2.772,2.772,0,0,1-.643.935l-45,45a3.082,3.082,0,0,1-.935.643A50.652,50.652,0,0,1,102.824,67.933Z"/></g></g></g></svg>