<svg xmlns="http://www.w3.org/2000/svg" xmlns:xlink="http://www.w3.org/1999/xlink" width="113" height="113" viewBox="0 0 113 113"><defs><style>.a{fill:#fff;}.b{clip-path:url(#a);}.c{fill:#ebeff0;}.d{fill:#4481c2;}.e{fill:#285680;}.f{fill:#bcc2c6;}</style><clipPath id="a"><rect class="a" width="113" height="113" transform="translate(781 306)"/></clipPath></defs><g class="b" transform="translate(-781 -306)"><g transform="translate(780.995 329.378)"><path class="c" d="M113,9.742v5.845a13.638,13.638,0,0,1-8.559,12.664,1.966,1.966,0,0,0-1.183,1.839v8.877q0,.929-.062,1.845a3.78,3.78,0,0,1-1.559,2.751L71.97,65.482a3.9,3.9,0,0,1-2.317.762H17.535a15.614,15.614,0,0,1-15.587-15.1A9.7,9.7,0,0,1,.175,43.507l.058-.39A90.793,90.793,0,0,0,1.948,25.572,25.459,25.459,0,0,1,27.277,0H43.725A32.966,32.966,0,0,1,70.141,13.112V9.742A9.742,9.742,0,0,1,79.883,0h5.845a13.4,13.4,0,0,1,5.845,1.325A13.4,13.4,0,0,1,97.418,0h5.845A9.742,9.742,0,0,1,113,9.742Z"/><path class="d" d="M95.119,42.688a19.591,19.591,0,0,0,.351-3.721V23.38a1.948,1.948,0,0,1,1.948-1.948h1.948a5.845,5.845,0,0,0,5.845-5.845V9.742a1.948,1.948,0,0,0-1.948-1.948H97.418a5.845,5.845,0,0,0-5.845,5.845,5.845,5.845,0,0,0-5.845-5.845H79.883a1.948,1.948,0,0,0-1.948,1.948v5.845a5.845,5.845,0,0,0,5.845,5.845h1.948a1.948,1.948,0,0,1,1.948,1.948v6.6a8.98,8.98,0,0,1-17.555,2.669L67.9,25.562A25.34,25.34,0,0,0,43.721,7.793H27.277A17.5,17.5,0,0,0,9.742,25.329a100.06,100.06,0,0,1-1.909,19.6,1.927,1.927,0,0,0,1.851,2.3l.058.058v3.371a7.793,7.793,0,0,0,7.793,7.793H73.18Z"/><path class="e" d="M23.38,48.709a81.661,81.661,0,0,1-14-1.455,1.948,1.948,0,0,1,.715-3.83A77.755,77.755,0,0,0,23.38,44.812a72.056,72.056,0,0,0,15.113-1.89,1.948,1.948,0,1,1,.945,3.78A74.973,74.973,0,0,1,23.38,48.709Z"/><path class="e" d="M27.277,37.019a1.948,1.948,0,0,1-1.948-1.948,3.9,3.9,0,0,0-5.194-3.677,1.948,1.948,0,1,1-1.3-3.671A7.793,7.793,0,0,1,29.225,35.07a1.948,1.948,0,0,1-1.948,1.948Z"/><circle class="a" cx="1.948" cy="1.948" r="1.948" transform="translate(17.535 35.07)"/><path class="f" d="M102.6,42.533a4,4,0,0,1-.959,1.031L71.97,65.482a4.052,4.052,0,0,1-.992.528,27.3,27.3,0,0,1,27-23.478Z"/></g></g></svg>