<svg xmlns="http://www.w3.org/2000/svg" xmlns:xlink="http://www.w3.org/1999/xlink" width="113" height="113" viewBox="0 0 113 113"><defs><style>.a{fill:#fff;}.b{clip-path:url(#a);}.c{fill:#bcc2c6;}.d{fill:#7f8b8c;}.e{fill:#ebeff0;}.f{fill:#94a4a4;}.g{fill:#35495e;}.h{fill:#ff5364;}</style><clipPath id="a"><rect class="a" width="113" height="113" transform="translate(382 705)"/></clipPath></defs><g class="b" transform="translate(-382 -705)"><g transform="translate(382 705)"><path class="c" d="M113,9.741V49.174c0,3.371-1.909,5.338-6.312,5.338h-.136a51.825,51.825,0,0,1,.6,7.832c0,.76-.019,1.5-.058,2.26a3.117,3.117,0,0,1-.37,1.383,2.772,2.772,0,0,1-.643.935L61.078,111.928a2.773,2.773,0,0,1-.935.643,3.117,3.117,0,0,1-1.383.37c-.76.039-1.5.058-2.26.058A50.655,50.655,0,0,1,5.845,62.345a51.824,51.824,0,0,1,.6-7.832H6.41C1.948,54.552,0,52.6,0,49.194V9.741A9.741,9.741,0,0,1,9.741,0h4.033a9.706,9.706,0,0,1,6.546,2.533l13.248,12.04a3.844,3.844,0,0,0,4.033.76,50.836,50.836,0,0,1,37.8,0,3.844,3.844,0,0,0,4.033-.76L92.679,2.533A9.706,9.706,0,0,1,99.226,0h4.033A9.741,9.741,0,0,1,113,9.741Z"/><path class="d" d="M6.447,56.461a1.949,1.949,0,0,1-.086-3.9,9.716,9.716,0,0,0,9.225-9.7V11.69a1.948,1.948,0,1,1,3.9,0V42.862a13.611,13.611,0,0,1-12.948,13.6Z"/><path class="d" d="M106.553,56.461h-.088a13.611,13.611,0,0,1-12.948-13.6V11.69a1.948,1.948,0,1,1,3.9,0V42.862a9.716,9.716,0,0,0,9.225,9.7,1.949,1.949,0,0,1-.086,3.9Z"/><path class="e" d="M65.365,75.145,63.144,82.9A3.881,3.881,0,0,1,59.4,85.724H53.6A3.881,3.881,0,0,1,49.856,82.9l-2.221-7.754Z"/><path class="f" d="M106.727,65.988a2.772,2.772,0,0,1-.643.935L61.078,111.928a2.773,2.773,0,0,1-.935.643A50.655,50.655,0,0,1,106.727,65.988Z"/><path class="d" d="M44.81,33.121a1.948,1.948,0,0,1-.869-.2,22.043,22.043,0,0,0-8.872-1.744,23.658,23.658,0,0,0-7.195,1.1,1.948,1.948,0,1,1-1.2-3.7,27.537,27.537,0,0,1,8.391-1.3,25.577,25.577,0,0,1,10.612,2.153,1.948,1.948,0,0,1-.871,3.692Z"/><path class="d" d="M68.19,33.121a1.948,1.948,0,0,1-.877-3.69,25.577,25.577,0,0,1,10.618-2.155,27.537,27.537,0,0,1,8.391,1.292,1.948,1.948,0,1,1-1.2,3.7,23.658,23.658,0,0,0-7.195-1.1,22.064,22.064,0,0,0-8.876,1.753,1.948,1.948,0,0,1-.865.195Z"/><circle class="e" cx="11.69" cy="11.69" r="11.69" transform="translate(23.379 35.069)"/><circle class="g" cx="5.845" cy="5.845" r="5.845" transform="translate(29.224 40.914)"/><circle class="a" cx="3.897" cy="3.897" r="3.897" transform="translate(27.276 38.966)"/><circle class="e" cx="11.69" cy="11.69" r="11.69" transform="translate(66.241 35.069)"/><circle class="g" cx="5.845" cy="5.845" r="5.845" transform="translate(72.086 40.914)"/><circle class="a" cx="3.897" cy="3.897" r="3.897" transform="translate(70.138 38.966)"/><path class="f" d="M58.448,81.828v3.9h-3.9v-3.9a1.948,1.948,0,0,1,3.9,0Z"/><path class="d" d="M68.19,68.19a1.948,1.948,0,0,0-1.948,1.948,3.9,3.9,0,0,1-7.793,0V68.19a1.948,1.948,0,0,0-3.9,0v1.948a3.9,3.9,0,0,1-7.793,0,1.948,1.948,0,1,0-3.9,0,7.76,7.76,0,0,0,13.638,5.1,7.76,7.76,0,0,0,13.638-5.1A1.948,1.948,0,0,0,68.19,68.19Z"/><path class="h" d="M64.293,60.4A8.584,8.584,0,0,1,56.5,68.19,8.584,8.584,0,0,1,48.707,60.4c0-3.228,3.489-3.9,7.793-3.9S64.293,57.168,64.293,60.4Z"/></g></g></svg>