<svg xmlns="http://www.w3.org/2000/svg" xmlns:xlink="http://www.w3.org/1999/xlink" width="113" height="113" viewBox="0 0 113 113"><defs><style>.a{fill:#fff;}.b{clip-path:url(#a);}.c{fill:#35495e;}.d{fill:#ebeff0;}.e{fill:#bcc2c6;}</style><clipPath id="a"><rect class="a" width="113" height="113" transform="translate(648 439)"/></clipPath></defs><g class="b" transform="translate(-648 -439)"><g transform="translate(648 439)"><path class="c" d="M56.5,113A56.5,56.5,0,1,1,113,56.5c0,.865-.016,1.722-.057,2.578A3.869,3.869,0,0,1,111.8,61.61L61.6,111.8a3.869,3.869,0,0,1-2.533,1.148C58.222,112.984,57.365,113,56.5,113Z"/><path class="d" d="M85.724,28.25A28.25,28.25,0,0,1,57.474,56.5H55.526a28.25,28.25,0,0,0-3.078,56.344A56.5,56.5,0,0,1,56.5,0c.974,0,1.948.019,2.9.078.39.019.779.039,1.149.078A28.25,28.25,0,0,1,85.724,28.25Z"/><circle class="c" cx="8.767" cy="8.767" r="8.767" transform="translate(53.578 19.483)"/><circle class="d" cx="8.767" cy="8.767" r="8.767" transform="translate(41.888 75.983)"/><path class="e" d="M112.532,60.572A3.443,3.443,0,0,1,111.8,61.6L61.6,111.8a3.443,3.443,0,0,1-1.029.736,56.471,56.471,0,0,1,51.96-51.96Z"/></g></g></svg>