<svg xmlns="http://www.w3.org/2000/svg" xmlns:xlink="http://www.w3.org/1999/xlink" width="113" height="113" viewBox="0 0 113 113"><defs><style>.a{fill:#fff;}.b{clip-path:url(#a);}.c{fill:#3b96d2;}.d{fill:#efc319;}.e{fill:#ebeff0;}.f{fill:#f2d45b;}.g{fill:#f19b1f;}.h{fill:#3f5c6c;}.i{fill:#bcc2c6;}</style><clipPath id="a"><rect class="a" width="113" height="113" transform="translate(116 173)"/></clipPath></defs><g class="b" transform="translate(-116 -173)"><g transform="translate(125.741 173)"><path class="c" d="M56.9,113H7.793A7.793,7.793,0,0,1,0,105.207V7.793A7.793,7.793,0,0,1,7.793,0H85.724a7.793,7.793,0,0,1,7.793,7.793V78.2A3.9,3.9,0,0,1,92.3,81.033l-32.721,30.9A3.9,3.9,0,0,1,56.9,113Z"/><circle class="d" cx="9.741" cy="9.741" r="9.741" transform="translate(9.741 9.741)"/><path class="e" d="M93.517,68.19V78.2a3.9,3.9,0,0,1-1.227,2.825l-32.712,30.9A3.9,3.9,0,0,1,56.89,113H7.793A7.793,7.793,0,0,1,0,105.207V68.19Z"/><path class="f" d="M93.517,49.506V68.19H5.475L37.53,32.758a1.948,1.948,0,0,1,2.882,0L51.22,44.538l.019-.019L53.85,41.6,68.686,25a1.948,1.948,0,0,1,2.9,0Z"/><path class="g" d="M63.455,54.98a2.013,2.013,0,0,1-1.325.507,1.948,1.948,0,0,1-1.442-.643L51.24,44.518,53.85,41.6l9.722,10.618a1.966,1.966,0,0,1-.117,2.767Z"/><path class="h" d="M65.536,85.724H27.276a1.948,1.948,0,1,1,0-3.9h38.26a1.948,1.948,0,0,1,0,3.9Z"/><path class="h" d="M61.433,97.414H31.172a1.948,1.948,0,1,1,0-3.9H61.433a1.948,1.948,0,1,1,0,3.9Z"/><path class="i" d="M93.147,79.879a4.123,4.123,0,0,1-.857,1.149l-32.712,30.9a3.91,3.91,0,0,1-1.13.74v-25a7.793,7.793,0,0,1,7.793-7.793Z"/></g></g></svg>