<svg xmlns="http://www.w3.org/2000/svg" xmlns:xlink="http://www.w3.org/1999/xlink" width="113" height="113" viewBox="0 0 113 113"><defs><style>.a{fill:#fff;}.b{clip-path:url(#a);}.c{fill:#945ba4;}.d{fill:#3d324c;}.e{fill:#8fb9e0;}.f{fill:#ff5364;}.g{fill:#b399c9;}.h{fill:#884b9c;}.i{fill:#5d4c72;}.j{fill:#bcc2c6;}</style><clipPath id="a"><rect class="a" width="113" height="113" transform="translate(781 439)"/></clipPath></defs><g class="b" transform="translate(-781 -439)"><g transform="translate(798.534 439)"><path class="c" d="M74.034,42.862v5.845a1.948,1.948,0,0,1-1.948,1.948H70.138L64.166,92.362a3.9,3.9,0,0,1-.943,2.03l-15.3,17.3A3.9,3.9,0,0,1,45.005,113H21.431a1.948,1.948,0,0,1-1.948-1.948v-5.845h-.507a3.885,3.885,0,0,1-3.858-3.351l-7.326-51.2H5.845A1.948,1.948,0,0,1,3.9,48.707V42.862Z"/><rect class="d" width="77.931" height="7.793" rx="1.948" transform="translate(0 35.069)"/><path class="e" d="M27.276,11.69H50.655A21.431,21.431,0,0,1,72.086,33.121v1.948H5.845V33.121A21.431,21.431,0,0,1,27.276,11.69Z"/><path class="f" d="M35.069,0h7.793A1.948,1.948,0,0,1,44.81,1.948V35.069H33.121V1.948A1.948,1.948,0,0,1,35.069,0Z"/><circle class="g" cx="9.741" cy="9.741" r="9.741" transform="translate(29.224 64.293)"/><path class="h" d="M33.121,11.69H44.81V35.069H33.121Z"/><path class="i" d="M74.034,42.862v5.845a1.948,1.948,0,0,1-1.948,1.948H5.845A1.948,1.948,0,0,1,3.9,48.707V42.862Z"/><path class="i" d="M53.656,105.207l-5.728,6.484A3.963,3.963,0,0,1,45.005,113H21.431a1.948,1.948,0,0,1-1.948-1.948v-5.845Z"/><path class="j" d="M63.806,93.517a3.427,3.427,0,0,1-.584.875l-15.294,17.3a3.7,3.7,0,0,1-1.169.881V97.414a3.908,3.908,0,0,1,3.9-3.9Z"/></g></g></svg>