<svg xmlns="http://www.w3.org/2000/svg" xmlns:xlink="http://www.w3.org/1999/xlink" width="113" height="113" viewBox="0 0 113 113"><defs><style>.a{fill:#fff;}.b{clip-path:url(#a);}.c{fill:#35495e;}.d{fill:#56595e;}.e{fill:#338f7c;}.f{fill:#26b899;}.g{fill:#bcc2c6;}.h{fill:#f8e9af;}.i{fill:#f19b1f;}.j{fill:#ebeff0;}.k{fill:#afd2ef;}.l{fill:#f4eec9;}.m{fill:#94a4a4;}</style><clipPath id="a"><rect class="a" width="113" height="113" transform="translate(648 572)"/></clipPath></defs><g class="b" transform="translate(-648 -572)"><g transform="translate(648 572)"><path class="c" d="M7.793,99.362H21.431V109.1a3.9,3.9,0,0,1-3.9,3.9H11.69a3.9,3.9,0,0,1-3.9-3.9Z"/><path class="c" d="M91.568,99.362h13.638V109.1a3.9,3.9,0,0,1-3.9,3.9H95.465a3.9,3.9,0,0,1-3.9-3.9Z"/><path class="d" d="M103.161,37.017h3.994a5.845,5.845,0,0,0,0-11.69H5.845a5.845,5.845,0,0,0,0,11.69Z"/><path class="e" d="M105.206,91.568V46.33a11.807,11.807,0,0,0-.39-2.981L97.863,18.255a1.948,1.948,0,0,0-.824-1.126L70.621.308A1.966,1.966,0,0,0,69.571,0H27.51a10.293,10.293,0,0,0-9.975,7.793L8.183,43.349a11.806,11.806,0,0,0-.39,2.981V91.568Z"/><path class="f" d="M105.109,44.83C102.927,45.453,67.956,55.7,60.4,91.568H52.6C45.044,55.7,10.073,45.453,7.89,44.83a12.435,12.435,0,0,1,.292-1.481L17.534,7.793H72.027L72.339,9.1a10.489,10.489,0,0,0,9.975,8.436H97.472a1.545,1.545,0,0,1,.39.721l6.955,25.094A12.435,12.435,0,0,1,105.109,44.83Z"/><path class="g" d="M106.18,101.31H6.819a4.871,4.871,0,0,1,0-9.741H106.18a4.871,4.871,0,0,1,0,9.741Z"/><circle class="h" cx="7.793" cy="7.793" r="7.793" transform="translate(15.586 66.241)"/><circle class="i" cx="1.948" cy="1.948" r="1.948" transform="translate(13.638 56.5)"/><path class="j" d="M29.224,105.206a1.948,1.948,0,0,1-1.948-1.948V89.62a1.948,1.948,0,0,1,3.9,0v13.638A1.948,1.948,0,0,1,29.224,105.206Z"/><circle class="h" cx="7.793" cy="7.793" r="7.793" transform="translate(81.827 66.241)"/><circle class="j" cx="9.741" cy="9.741" r="9.741" transform="translate(46.758 44.81)"/><circle class="i" cx="1.948" cy="1.948" r="1.948" transform="translate(95.465 56.5)"/><path class="j" d="M83.775,105.206a1.948,1.948,0,0,1-1.948-1.948V89.62a1.948,1.948,0,0,1,3.9,0v13.638A1.948,1.948,0,0,1,83.775,105.206Z"/><path class="k" d="M52.6,7.793V29.224a3.908,3.908,0,0,1-3.9,3.9H10.871L17.534,7.793Z"/><path class="k" d="M101.972,33.121H64.293a3.908,3.908,0,0,1-3.9-3.9V7.793H72.027L72.339,9.1a10.489,10.489,0,0,0,9.975,8.436H97.472a1.545,1.545,0,0,1,.39.721Z"/><path class="l" d="M72.027,7.793H17.534A10.293,10.293,0,0,1,27.51,0H69.571a1.547,1.547,0,0,1,.584.1Z"/><path class="a" d="M23.379,27.276a1.948,1.948,0,0,1-.949-3.651l17.534-9.741a1.948,1.948,0,1,1,1.894,3.406L24.324,27.03a1.948,1.948,0,0,1-.945.245Z"/><path class="a" d="M70.138,27.276a1.948,1.948,0,0,1-.949-3.651l14.028-7.793a1.948,1.948,0,1,1,1.894,3.406L71.082,27.03a1.948,1.948,0,0,1-.945.245Z"/><path class="m" d="M97.472,17.534H82.314A10.489,10.489,0,0,1,72.339,9.1L70.157.1a1.259,1.259,0,0,1,.464.21L97.039,17.129a2.143,2.143,0,0,1,.433.405Z"/></g></g></svg>