<svg xmlns="http://www.w3.org/2000/svg" xmlns:xlink="http://www.w3.org/1999/xlink" width="113" height="113" viewBox="0 0 113 113"><defs><style>.a{fill:#fff;}.b{clip-path:url(#a);}.c{fill:#5d4c72;}.d{fill:#8fb9e0;}.e{fill:#bcc2c6;}</style><clipPath id="a"><rect class="a" width="113" height="113" transform="translate(781 705)"/></clipPath></defs><g class="b" transform="translate(-781 -705)"><g transform="translate(780.998 705)"><path class="c" d="M110,51.8a4.218,4.218,0,0,1-1.4,2.667l-9.24,8.186a16.95,16.95,0,0,1-21.431.836L66.573,54.9a5.149,5.149,0,0,0-7.561,6.692l7.179,12.289a16.889,16.889,0,0,1-3.4,21.15L44.883,110.88a8.481,8.481,0,0,1-10.384.645l-20.6-14.1a4.214,4.214,0,0,0-5.186.331l-.7.616a2.122,2.122,0,0,1-2.983-.183l-4.5-5.065A2.083,2.083,0,0,1,.407,90.5a150.867,150.867,0,0,1,19.94-22.794c15.818-14,24.77-13.462,32.678-20.456s8.449-15.942,24.267-29.944A150.893,150.893,0,0,1,102.337.271a2.087,2.087,0,0,1,2.593.44l4.5,5.065a2.116,2.116,0,0,1-.179,2.981l-.7.616a4.2,4.2,0,0,0-.953,5.1l4.917,9.443a4.212,4.212,0,0,1,.454,2.437Z"/><path class="d" d="M57.375,88.528,42.257,101.912a4.152,4.152,0,0,1-5.046.312L16.17,88.352a2.3,2.3,0,0,1-.546-3.37A106.746,106.746,0,0,1,26.4,73.643a75.166,75.166,0,0,1,17.963-11.67,4.214,4.214,0,0,1,5.377,1.6l9.176,14.514a8.286,8.286,0,0,1-1.539,10.443Z"/><path class="d" d="M106.126,31.273,98.294,15.638a2.281,2.281,0,0,0-3.267-.945,106.648,106.648,0,0,0-12.57,9.322A76.067,76.067,0,0,0,68.695,40.43a4.235,4.235,0,0,0,.955,5.531l13.332,10.82a8.311,8.311,0,0,0,10.557-.263l12.25-10.836Z"/><path class="a" d="M29.625,89.66h-.119A1.948,1.948,0,0,1,27.679,87.6l.36-5.96a1.952,1.952,0,0,1,3.9.234l-.36,5.962a1.948,1.948,0,0,1-1.95,1.827Z"/><path class="a" d="M47.708,87.756h-.117a1.948,1.948,0,0,1-1.829-2.061l.358-5.96a1.952,1.952,0,1,1,3.9.234l-.366,5.948A1.948,1.948,0,0,1,47.708,87.756Z"/><path class="a" d="M38.4,93.178h-.121a1.948,1.948,0,0,1-1.825-2.061l1.077-17.881a1.952,1.952,0,1,1,3.9.234L40.348,91.351a1.948,1.948,0,0,1-1.95,1.827Z"/><path class="a" d="M80.244,44.852h-.119A1.948,1.948,0,0,1,78.3,42.791l.358-5.96a1.952,1.952,0,1,1,3.9.234l-.357,5.96a1.948,1.948,0,0,1-1.95,1.827Z"/><path class="a" d="M89.013,48.371h-.119a1.948,1.948,0,0,1-1.827-2.061l1.079-17.879A1.97,1.97,0,0,1,90.209,26.6a1.948,1.948,0,0,1,1.825,2.061L90.957,46.543A1.948,1.948,0,0,1,89.013,48.371Z"/><path class="e" d="M112.974,26.36,110,51.8a4.013,4.013,0,0,1-.37,1.249l-5.962-11.417a8.083,8.083,0,0,1,1.812-9.78l7.442-6.6h.019A3.544,3.544,0,0,1,112.974,26.36Z"/></g></g></svg>