<svg xmlns="http://www.w3.org/2000/svg" xmlns:xlink="http://www.w3.org/1999/xlink" width="113" height="113" viewBox="0 0 113 113"><defs><style>.a{fill:#fff;}.b{clip-path:url(#a);}.c{fill:#efc319;}.d{fill:#ebeff0;}.e{fill:#35495e;}.f{fill:#d15627;}.g{fill:#bcc2c6;}</style><clipPath id="a"><rect class="a" width="113" height="113" transform="translate(249 173)"/></clipPath></defs><g class="b" transform="translate(-249 -173)"><g transform="translate(249 173)"><path class="c" d="M56.5,113A56.5,56.5,0,1,1,113,56.5c0,.865-.016,1.722-.057,2.578A3.869,3.869,0,0,1,111.8,61.61L61.6,111.8a3.869,3.869,0,0,1-2.533,1.148C58.222,112.984,57.365,113,56.5,113Z"/><circle class="d" cx="11.69" cy="11.69" r="11.69" transform="translate(23.379 31.172)"/><circle class="e" cx="5.845" cy="5.845" r="5.845" transform="translate(29.224 37.017)"/><circle class="a" cx="3.897" cy="3.897" r="3.897" transform="translate(27.276 35.069)"/><path class="e" d="M83.776,71.132,62.812,100.57a26.917,26.917,0,0,1-6.312.74,27.3,27.3,0,0,1-27-23.379H75.983A56.345,56.345,0,0,1,83.776,71.132Z"/><path class="f" d="M44.81,27.276a1.948,1.948,0,0,1-.869-.2,22.043,22.043,0,0,0-8.872-1.744,22.064,22.064,0,0,0-8.876,1.753,1.949,1.949,0,1,1-1.736-3.489,25.577,25.577,0,0,1,10.612-2.161,25.577,25.577,0,0,1,10.612,2.153,1.948,1.948,0,0,1-.871,3.692Z"/><path class="f" d="M87.672,27.276a1.948,1.948,0,0,1-.869-.2,23.438,23.438,0,0,0-17.747,0,1.949,1.949,0,0,1-1.736-3.489,27.233,27.233,0,0,1,21.225,0,1.948,1.948,0,0,1-.873,3.694Z"/><circle class="d" cx="11.69" cy="11.69" r="11.69" transform="translate(66.241 31.172)"/><circle class="e" cx="5.845" cy="5.845" r="5.845" transform="translate(72.086 37.017)"/><circle class="a" cx="3.897" cy="3.897" r="3.897" transform="translate(70.138 35.069)"/><path class="d" d="M83.776,70.138v.994a56.345,56.345,0,0,0-7.793,6.8H29.5a28.445,28.445,0,0,1-.273-3.9v-3.9a1.948,1.948,0,0,1,1.948-1.948H81.828A1.948,1.948,0,0,1,83.776,70.138Z"/><path class="g" d="M112.532,60.572A3.443,3.443,0,0,1,111.8,61.6L61.6,111.8a3.443,3.443,0,0,1-1.029.736,55.025,55.025,0,0,1,2.241-11.962,56.5,56.5,0,0,1,49.72-40Z"/></g></g></svg>