<svg xmlns="http://www.w3.org/2000/svg" xmlns:xlink="http://www.w3.org/1999/xlink" width="113" height="113" viewBox="0 0 113 113"><defs><style>.a{fill:#fff;}.b{clip-path:url(#a);}.c{fill:#de4d60;}.d{fill:#ff5364;}.e{fill:#802d40;}.f{fill:#bcc2c6;}.g{fill:#ebeff0;}.h{fill:#35495e;}</style><clipPath id="a"><rect class="a" width="113" height="113" transform="translate(249 439)"/></clipPath></defs><g class="b" transform="translate(-249 -439)"><g transform="translate(249 442.896)"><path class="c" d="M111.11,27.86,73.491,4.5a3.936,3.936,0,0,0-4.189.039A37.194,37.194,0,0,0,58.152,16a1.948,1.948,0,0,1-3.312-.016C51.489,10.655,42.94,0,28.25,0,11.534,0,0,15.08,0,32.945,0,57.32,22.382,74.3,55.167,104.689a1.972,1.972,0,0,0,2.665,0C90.618,74.3,113,57.32,113,32.945c0-.66-.014-1.323-.045-1.979a3.9,3.9,0,0,0-1.845-3.106Z"/><path class="d" d="M76,6.059A37.017,37.017,0,0,0,64.663,23.477c-1.344,4.578-1.714,9.332-2.689,13.989a25.3,25.3,0,0,1-6.04,12.878c-7.988,8.183-23.146,7.813-30.51,16.482a17.34,17.34,0,0,0-3.507,6.838C8.2,59.734,0,47.694,0,32.945,0,15.08,11.534,0,28.25,0,42.94,0,51.493,10.661,54.844,15.976a1.948,1.948,0,0,0,3.312.016A37.255,37.255,0,0,1,69.306,4.539,4,4,0,0,1,73.495,4.5Z"/><path class="e" d="M56.5,72.086a18.961,18.961,0,0,1-13.067-4.467,1.948,1.948,0,0,1,2.747-2.763A15.216,15.216,0,0,0,56.5,68.19a15.2,15.2,0,0,0,10.326-3.335,1.948,1.948,0,0,1,2.745,2.765A18.961,18.961,0,0,1,56.5,72.086Z"/><path class="f" d="M112.357,29.107a27.86,27.86,0,0,1-12.82,3.059c-15.216,0-26.146-12.488-27.958-28.211a3.564,3.564,0,0,1,1.911.549L111.11,27.86a3.647,3.647,0,0,1,1.247,1.247Z"/><path class="g" d="M50.655,44.81a11.69,11.69,0,0,1-4.13,8.923,25.85,25.85,0,0,0-15.119,0A11.69,11.69,0,1,1,50.655,44.81Z"/><circle class="h" cx="5.845" cy="5.845" r="5.845" transform="translate(33.121 38.966)"/><circle class="a" cx="3.897" cy="3.897" r="3.897" transform="translate(31.172 37.017)"/><path class="g" d="M85.724,44.81a11.69,11.69,0,0,1-4.13,8.923,25.85,25.85,0,0,0-15.119,0A11.69,11.69,0,1,1,85.724,44.81Z"/><circle class="h" cx="5.845" cy="5.845" r="5.845" transform="translate(68.19 38.966)"/><circle class="a" cx="3.897" cy="3.897" r="3.897" transform="translate(66.241 37.017)"/><path class="e" d="M48.707,56.5a1.968,1.968,0,0,1-.865-.195,13.816,13.816,0,0,0-1.884-.7,23.886,23.886,0,0,0-13.971,0,14.435,14.435,0,0,0-1.9.7,1.948,1.948,0,0,1-1.738-3.487,17.145,17.145,0,0,1,2.486-.939,27.784,27.784,0,0,1,16.264,0,17.125,17.125,0,0,1,2.478.937,1.948,1.948,0,0,1-.875,3.68Z"/><path class="e" d="M83.776,56.5a1.968,1.968,0,0,1-.865-.195,13.816,13.816,0,0,0-1.884-.7,23.886,23.886,0,0,0-13.971,0,14.435,14.435,0,0,0-1.9.7,1.948,1.948,0,0,1-1.738-3.487,17.145,17.145,0,0,1,2.486-.939,27.784,27.784,0,0,1,16.264,0,17.125,17.125,0,0,1,2.478.937,1.948,1.948,0,0,1-.875,3.68Z"/></g></g></svg>