<svg xmlns="http://www.w3.org/2000/svg" xmlns:xlink="http://www.w3.org/1999/xlink" width="113" height="113" viewBox="0 0 113 113"><defs><style>.a{fill:#fff;}.b{clip-path:url(#a);}.c{fill:#f19b1f;}.d{fill:#f8e9af;}.e{fill:#ca8152;}.f{fill:#7d6598;}.g{fill:#ff5364;}.h{fill:#bcc2c6;}.i{fill:#e47e25;}</style><clipPath id="a"><rect class="a" width="113" height="113" transform="translate(116 705)"/></clipPath></defs><g class="b" transform="translate(-116 -705)"><g transform="translate(139.367 704.996)"><path class="c" d="M9.511,64.287l20.051,46.391a3.9,3.9,0,0,0,7.132,0L56.744,64.3,54.56,58.457H11.691Z"/><path class="d" d="M65.891,57.258a9.371,9.371,0,0,1-6.446,6.615A9.778,9.778,0,0,1,50,61.812a1.9,1.9,0,0,0-2.564,0,9.743,9.743,0,0,1-13.024,0,1.913,1.913,0,0,0-2.572,0,9.743,9.743,0,0,1-13.016,0,1.9,1.9,0,0,0-2.562,0A9.743,9.743,0,1,1,4.191,46.565a1.8,1.8,0,0,0,.6-2.3A31.218,31.218,0,0,1,31.8.033a29.852,29.852,0,0,1,4.47.134A1.949,1.949,0,0,1,37.59.9L63.618,33.71a1.991,1.991,0,0,1,.421,1.469,29.965,29.965,0,0,1-2.6,9.037,1.855,1.855,0,0,0,.622,2.338,9.807,9.807,0,0,1,3.829,10.7Z"/><path class="e" d="M15.588,52.611a1.949,1.949,0,0,1-1.378-3.326l1.949-1.949a1.949,1.949,0,0,1,2.755,2.755L16.966,52.04a1.949,1.949,0,0,1-1.378.571Z"/><path class="f" d="M27.28,48.714A1.949,1.949,0,0,1,25.9,45.388l1.949-1.949a1.949,1.949,0,0,1,2.755,2.755l-1.949,1.949a1.949,1.949,0,0,1-1.378.571Z"/><path class="g" d="M15.588,40.92a1.949,1.949,0,0,1-1.378-3.326l1.949-1.949A1.949,1.949,0,0,1,18.915,38.4l-1.949,1.949a1.949,1.949,0,0,1-1.378.571Z"/><path class="g" d="M21.434,15.588a1.949,1.949,0,0,1-1.378-3.326l1.949-1.949a1.949,1.949,0,1,1,2.755,2.755l-1.949,1.949a1.949,1.949,0,0,1-1.378.571Z"/><path class="e" d="M25.331,25.331a1.949,1.949,0,0,1-1.378-3.326L25.9,20.057a1.949,1.949,0,0,1,2.755,2.755L26.709,24.76a1.949,1.949,0,0,1-1.378.571Z"/><path class="e" d="M46.765,42.868a1.949,1.949,0,0,1-1.378-3.326l1.949-1.949a1.949,1.949,0,0,1,2.755,2.755L48.143,42.3a1.949,1.949,0,0,1-1.378.571Z"/><path class="g" d="M40.92,52.611a1.949,1.949,0,0,1-1.378-.571l-1.949-1.949a1.949,1.949,0,0,1,2.755-2.755L42.3,49.285a1.949,1.949,0,0,1-1.378,3.326Z"/><path class="f" d="M35.074,35.074A1.949,1.949,0,0,1,33.7,34.5l-1.949-1.949A1.949,1.949,0,0,1,34.5,29.8l1.949,1.949a1.949,1.949,0,0,1-1.378,3.326Z"/><path class="f" d="M54.56,52.611a1.949,1.949,0,0,1-1.378-.571l-1.949-1.949a1.949,1.949,0,0,1,2.755-2.755l1.949,1.949a1.949,1.949,0,0,1-1.378,3.326Z"/><path class="f" d="M13.64,29.228a1.949,1.949,0,0,1-1.378-.571l-1.949-1.949a1.949,1.949,0,0,1,2.755-2.755L15.018,25.9a1.949,1.949,0,0,1-1.378,3.326Z"/><path class="h" d="M63.952,34.353C44.271,34.977,32.268,12.217,37.179.526A1.243,1.243,0,0,1,37.59.9L63.619,33.71a1.685,1.685,0,0,1,.333.643Z"/><path class="i" d="M53.371,72.1,49.162,81.84H17.089L12.88,72.1Z"/><path class="i" d="M44.953,91.582l-4.209,9.743H25.526L21.3,91.582Z"/></g></g></svg>