<svg xmlns="http://www.w3.org/2000/svg" xmlns:xlink="http://www.w3.org/1999/xlink" width="113" height="113" viewBox="0 0 113 113"><defs><style>.a{fill:#fff;}.b{clip-path:url(#a);}.c{fill:#a46a43;}.d{fill:#ce966a;}.e{fill:#603e26;}.f{fill:#ebeff0;}.g{fill:#35495e;}.h{fill:#2c2f38;}.i{fill:#2c3e50;}.j{fill:#bcc2c6;}</style><clipPath id="a"><rect class="a" width="113" height="113" transform="translate(648 173)"/></clipPath></defs><g class="b" transform="translate(-648 -173)"><g transform="translate(648.001 173.002)"><g transform="translate(0 -1.948)"><path class="c" d="M113,18.372v12.8a7.775,7.775,0,0,1-7.657,7.793,15.416,15.416,0,0,1-5.553-.974,50.335,50.335,0,0,1,7.364,26.3c0,.76-.019,1.5-.058,2.26a3.47,3.47,0,0,1-1.013,2.318l-45,45a3.47,3.47,0,0,1-2.318,1.013c-.76.039-1.5.058-2.26.058a50.654,50.654,0,0,1-43.29-76.956,15.417,15.417,0,0,1-5.553.974A7.775,7.775,0,0,1,0,31.172v-12.8A11.709,11.709,0,0,1,7.189,7.579L19.268,2.552a7.768,7.768,0,0,1,7.676.955L42.18,14.281a3.926,3.926,0,0,0,3.117.6,50.947,50.947,0,0,1,22.4,0,3.926,3.926,0,0,0,3.117-.6L86.054,3.507a7.768,7.768,0,0,1,7.676-.955l12.079,5.026A11.709,11.709,0,0,1,113,18.372Z"/><path class="d" d="M52.6,13.794V54.551A21.419,21.419,0,0,1,31.172,75.982H7.209a50.688,50.688,0,0,1,6-37.991,15.417,15.417,0,0,1-5.553.974A7.775,7.775,0,0,1,0,31.172v-12.8A11.709,11.709,0,0,1,7.189,7.579L19.268,2.552a7.768,7.768,0,0,1,7.676.955L42.18,14.281a3.926,3.926,0,0,0,3.117.6A47.514,47.514,0,0,1,52.6,13.794Z"/><path class="d" d="M113,18.372v12.8a7.775,7.775,0,0,1-7.657,7.793,15.416,15.416,0,0,1-5.553-.974,50.335,50.335,0,0,1,7.364,26.3c0,.76-.019,1.5-.058,2.26a3.117,3.117,0,0,1-.37,1.383,50.052,50.052,0,0,0-23.691,8.046H81.826A21.419,21.419,0,0,1,60.4,54.551V13.794A47.514,47.514,0,0,1,67.7,14.885a3.926,3.926,0,0,0,3.117-.6L86.054,3.507a7.768,7.768,0,0,1,7.676-.955l12.079,5.026A11.709,11.709,0,0,1,113,18.372Z"/><path class="e" d="M44.81,38.965a1.948,1.948,0,0,1-.869-.2,22.042,22.042,0,0,0-8.872-1.744,23.658,23.658,0,0,0-7.195,1.1,1.948,1.948,0,1,1-1.2-3.7,27.537,27.537,0,0,1,8.391-1.3,25.577,25.577,0,0,1,10.612,2.153,1.948,1.948,0,0,1-.871,3.692Z"/><path class="e" d="M68.189,38.965a1.948,1.948,0,0,1-.877-3.69A25.577,25.577,0,0,1,77.93,33.12a27.536,27.536,0,0,1,8.391,1.292,1.948,1.948,0,1,1-1.2,3.7,23.658,23.658,0,0,0-7.195-1.1,22.064,22.064,0,0,0-8.876,1.753,1.948,1.948,0,0,1-.865.195Z"/><path class="e" d="M62.344,99.361A7.774,7.774,0,0,1,56.5,96.717a7.793,7.793,0,0,1-13.638-5.149,1.948,1.948,0,1,1,3.9,0,3.9,3.9,0,1,0,7.793,0v-3.9a1.948,1.948,0,0,1,3.9,0v3.9a3.9,3.9,0,0,0,3.9,3.9,3.791,3.791,0,0,0,1.621-.358,1.948,1.948,0,1,1,1.666,3.522,7.729,7.729,0,0,1-3.287.733Z"/><path class="c" d="M13.209,39.939a1.948,1.948,0,0,1-.67-3.778,13.86,13.86,0,0,0,4.913-3.141,13.687,13.687,0,0,0,3.758-7.15,15.083,15.083,0,0,0,.22-2.492V11.689a1.948,1.948,0,1,1,3.9,0V23.379a18.876,18.876,0,0,1-.281,3.172,17.583,17.583,0,0,1-4.841,9.227,17.834,17.834,0,0,1-6.324,4.043,1.98,1.98,0,0,1-.672.119Z"/><path class="c" d="M99.789,39.939a1.979,1.979,0,0,1-.672-.119,17.811,17.811,0,0,1-6.308-4.027,17.587,17.587,0,0,1-4.853-9.217,19.007,19.007,0,0,1-.284-3.2V11.689a1.948,1.948,0,0,1,3.9,0V23.379a15.015,15.015,0,0,0,.226,2.517,13.673,13.673,0,0,0,3.768,7.14,13.833,13.833,0,0,0,4.9,3.117,1.948,1.948,0,0,1-.67,3.785Z"/><circle class="f" cx="11.689" cy="11.689" r="11.689" transform="translate(23.379 40.913)"/><circle class="g" cx="5.845" cy="5.845" r="5.845" transform="translate(29.224 46.758)"/><circle class="a" cx="3.896" cy="3.896" r="3.896" transform="translate(27.275 44.81)"/><circle class="f" cx="11.689" cy="11.689" r="11.689" transform="translate(66.24 40.913)"/><circle class="g" cx="5.845" cy="5.845" r="5.845" transform="translate(72.085 46.758)"/><circle class="a" cx="3.896" cy="3.896" r="3.896" transform="translate(70.137 44.81)"/><path class="h" d="M64.292,79.878A8.584,8.584,0,0,1,56.5,87.671a8.584,8.584,0,0,1-7.793-7.793c0-3.228,3.489-3.9,7.793-3.9S64.292,76.65,64.292,79.878Z"/><path class="i" d="M60.4,79.229c0,1.075-1.744,2.6-3.9,2.6s-3.9-1.522-3.9-2.6,1.753-1.3,3.9-1.3S60.4,78.152,60.4,79.229Z"/><path class="j" d="M106.725,67.935a2.772,2.772,0,0,1-.643.935l-45,45a2.772,2.772,0,0,1-.935.643A50.654,50.654,0,0,1,106.725,67.935Z"/></g></g></g></svg>