<svg xmlns="http://www.w3.org/2000/svg" xmlns:xlink="http://www.w3.org/1999/xlink" width="113" height="113" viewBox="0 0 113 113"><defs><style>.a{fill:#fff;}.b{clip-path:url(#a);}.c{fill:#ebeff0;}.d{fill:#7ecf9d;}.e{fill:#338f7c;}.f{fill:#f4eec9;}.g{fill:#a46a43;}.h{fill:#ce966a;}.i{fill:#bcc2c6;}.j{fill:#2c3e50;}</style><clipPath id="a"><rect class="a" width="113" height="113" transform="translate(781 572)"/></clipPath></defs><g class="b" transform="translate(-781 -572)"><g transform="translate(796.587 572.004)"><g transform="translate(0 -1.948)"><path class="c" d="M81.825,75.981a36.572,36.572,0,0,1-.742,7.376,3.863,3.863,0,0,1-1.3,2.143L46.391,113.893a3.875,3.875,0,0,1-2.211.931c-1.079.08-2.174.121-3.267.121C18.313,114.945,0,97.509,0,75.981,0,56.5,12.274,44.809,19.229,17.69A22.311,22.311,0,0,1,40.913,1.948,22.311,22.311,0,0,1,62.6,17.69C69.552,44.809,81.825,56.5,81.825,75.981Z"/><path class="d" d="M73.273,82.585a28.49,28.49,0,0,0,.76-6.6c0-9.313-3.487-16.891-7.91-26.457a169.273,169.273,0,0,1-11.28-29.866,14.742,14.742,0,0,0-27.86,0A169.274,169.274,0,0,1,15.7,49.524c-4.422,9.566-7.91,17.144-7.91,26.457,0,17.183,14.865,31.172,33.12,31.172a34.91,34.91,0,0,0,3.8-.214Z"/><path class="e" d="M77.929,75.981a32.791,32.791,0,0,1-.857,7.5l-3.8-.9a28.49,28.49,0,0,0,.76-6.6c0-9.313-3.487-16.891-7.91-26.457a169.273,169.273,0,0,1-11.28-29.866,14.742,14.742,0,0,0-27.86,0A169.274,169.274,0,0,1,15.7,49.524c-4.422,9.566-7.91,17.144-7.91,26.457,0,17.183,14.865,31.172,33.12,31.172a34.91,34.91,0,0,0,3.8-.214l.429,3.877a39.511,39.511,0,0,1-4.228.234C20.5,111.049,3.9,95.327,3.9,75.981c0-10.209,3.838-18.489,8.26-28.093A165.761,165.761,0,0,0,23.223,18.664a18.629,18.629,0,0,1,35.36-.117A164.975,164.975,0,0,0,69.61,47.77C74.091,57.492,77.929,65.772,77.929,75.981Z"/><path class="f" d="M40.913,99.359A19.5,19.5,0,0,1,21.43,79.877C21.43,62.8,28.713,52.6,40.913,52.6S60.395,62.8,60.395,79.877a19.3,19.3,0,0,1-1.633,7.793l-.265.6-7.888,8.5-.584.31a19.5,19.5,0,0,1-9.112,2.274Z"/><path class="g" d="M55.193,86.112A15.463,15.463,0,0,0,56.5,79.877C56.5,68.188,52.6,56.5,40.913,56.5S25.327,68.188,25.327,79.877A15.586,15.586,0,0,0,48.2,93.651Z"/><path class="h" d="M48.661,79.877a1.948,1.948,0,0,1-1.948-1.863c-.15-3.54-1.036-11.775-5.8-11.775a1.948,1.948,0,0,1,0-3.9c5.806,0,9.25,5.5,9.7,15.5a1.948,1.948,0,0,1-1.861,2.034Z"/><path class="i" d="M80.6,84.572a3.729,3.729,0,0,1-.818.937L46.391,113.893a3.744,3.744,0,0,1-1,.623C41.03,91.547,58.408,76.1,80.6,84.572Z"/><path class="j" d="M40.913,46.757a6.945,6.945,0,0,1-5.418-2.679,1.949,1.949,0,0,1,3.043-2.435,2.981,2.981,0,0,0,4.75,0,1.949,1.949,0,1,1,3.043,2.435A6.945,6.945,0,0,1,40.913,46.757Z"/><path class="j" d="M33.12,37.016a5.845,5.845,0,0,1-5.845-5.845,1.948,1.948,0,1,1,3.9,0,1.948,1.948,0,0,0,3.9,0,1.948,1.948,0,1,1,3.9,0A5.845,5.845,0,0,1,33.12,37.016Z"/><path class="j" d="M48.706,37.016a5.845,5.845,0,0,1-5.845-5.845,1.948,1.948,0,1,1,3.9,0,1.948,1.948,0,1,0,3.9,0,1.948,1.948,0,1,1,3.9,0A5.845,5.845,0,0,1,48.706,37.016Z"/></g></g></g></svg>