<svg xmlns="http://www.w3.org/2000/svg" xmlns:xlink="http://www.w3.org/1999/xlink" width="113" height="113" viewBox="0 0 113 113"><defs><style>.a{fill:#fff;}.b{clip-path:url(#a);}.c{fill:#efc319;}.d{fill:#35495e;}.e{fill:#bcc2c6;}.f{fill:#ebeff0;}.g{fill:#f19b1f;}</style><clipPath id="a"><rect class="a" width="113" height="113" transform="translate(116 439)"/></clipPath></defs><g class="b" transform="translate(-116 -439)"><g transform="translate(116 439)"><path class="c" d="M56.5,113A56.5,56.5,0,1,1,113,56.5c0,.865-.016,1.722-.057,2.578A3.869,3.869,0,0,1,111.8,61.61L61.6,111.8a3.869,3.869,0,0,1-2.533,1.148C58.222,112.984,57.365,113,56.5,113Z"/><path class="d" d="M77.171,76.723A23.379,23.379,0,0,0,33.121,87.672v1.948a1.948,1.948,0,0,0,1.948,1.948H66.4Z"/><path class="e" d="M112.532,60.572A3.443,3.443,0,0,1,111.8,61.6L61.6,111.8a3.443,3.443,0,0,1-1.029.736,56.471,56.471,0,0,1,51.961-51.961Z"/><circle class="f" cx="11.69" cy="11.69" r="11.69" transform="translate(23.379 31.172)"/><circle class="d" cx="5.845" cy="5.845" r="5.845" transform="translate(29.224 37.017)"/><circle class="a" cx="3.897" cy="3.897" r="3.897" transform="translate(27.276 35.069)"/><path class="g" d="M41.266,35.3a28.03,28.03,0,0,1-5.132-.475,25.287,25.287,0,0,1-10.028-4.039,1.948,1.948,0,1,1,2.338-3.117,21.834,21.834,0,0,0,8.389,3.312,21.523,21.523,0,0,0,9.046-.092,1.949,1.949,0,0,1,1.079,3.745A22.329,22.329,0,0,1,41.266,35.3Z"/><circle class="f" cx="11.69" cy="11.69" r="11.69" transform="translate(66.241 31.172)"/><circle class="d" cx="5.845" cy="5.845" r="5.845" transform="translate(72.086 37.017)"/><circle class="a" cx="3.897" cy="3.897" r="3.897" transform="translate(70.138 35.069)"/><path class="g" d="M71.734,35.3a28.03,28.03,0,0,0,5.132-.475,25.287,25.287,0,0,0,10.028-4.039,1.948,1.948,0,1,0-2.338-3.117,21.834,21.834,0,0,1-8.389,3.312,21.523,21.523,0,0,1-9.046-.092,1.949,1.949,0,0,0-1.079,3.745,22.329,22.329,0,0,0,5.693.666Z"/><path class="f" d="M71.132,83.776A53.6,53.6,0,0,0,66.4,91.569H35.069a1.948,1.948,0,0,1-1.948-1.948V87.672a23.379,23.379,0,0,1,.331-3.9Z"/></g></g></svg>