<svg xmlns="http://www.w3.org/2000/svg" xmlns:xlink="http://www.w3.org/1999/xlink" width="113" height="113" viewBox="0 0 113 113"><defs><style>.a{fill:#fff;}.b{clip-path:url(#a);}.c{fill:#ebeff0;}.d{fill:#f19b1f;}.e{fill:#efc319;}.f{fill:#2c3e50;}</style><clipPath id="a"><rect class="a" width="113" height="113" transform="translate(648 705)"/></clipPath></defs><g class="b" transform="translate(-648 -705)"><g transform="translate(648.003 704.998)"><g transform="translate(-1.948)"><path class="c" d="M58.445,112.993a11.554,11.554,0,0,1-6.959-2.322,24.993,24.993,0,0,1-5-5.028,1.915,1.915,0,0,0-2.274-.584,25.044,25.044,0,0,1-6.77,1.845,11.974,11.974,0,0,1-1.407.084,11.638,11.638,0,0,1-10.715-7.08,25.383,25.383,0,0,1-1.792-6.819,1.948,1.948,0,0,0-1.753-1.652,25,25,0,0,1-6.708-1.79A11.613,11.613,0,0,1,8.038,77.589,25.149,25.149,0,0,1,9.86,70.806,1.948,1.948,0,0,0,9.3,68.468a25.028,25.028,0,0,1-5.026-5,11.56,11.56,0,0,1,0-13.922A24.917,24.917,0,0,1,9.3,44.535,1.948,1.948,0,0,0,9.856,42.2a24.87,24.87,0,0,1-1.808-6.7,11.631,11.631,0,0,1,6.994-12.131,25.016,25.016,0,0,1,6.727-1.8,1.948,1.948,0,0,0,1.753-1.652,25.272,25.272,0,0,1,1.786-6.8,11.646,11.646,0,0,1,10.729-7.1,11.79,11.79,0,0,1,1.331.074,25.412,25.412,0,0,1,6.846,1.857,1.911,1.911,0,0,0,2.274-.584A24.936,24.936,0,0,1,51.5,2.332a11.586,11.586,0,0,1,13.916,0,24.993,24.993,0,0,1,5,5.028,1.915,1.915,0,0,0,2.273.584A25.044,25.044,0,0,1,79.46,6.1a11.983,11.983,0,0,1,1.409-.084A11.64,11.64,0,0,1,91.583,13.1a25.306,25.306,0,0,1,1.792,6.819,1.948,1.948,0,0,0,1.744,1.652,25.03,25.03,0,0,1,6.731,1.8,11.921,11.921,0,0,1,6.91,12.747,24.851,24.851,0,0,1-1.724,6.088,1.948,1.948,0,0,0,.555,2.338,25.008,25.008,0,0,1,5.024,5,11.558,11.558,0,0,1,0,13.92,24.867,24.867,0,0,1-5.02,5,1.948,1.948,0,0,0-.555,2.338,24.841,24.841,0,0,1,1.722,6.084,11.925,11.925,0,0,1-6.912,12.753,25.043,25.043,0,0,1-6.733,1.8,1.948,1.948,0,0,0-1.742,1.654,25.289,25.289,0,0,1-1.786,6.8,11.646,11.646,0,0,1-10.729,7.1,11.792,11.792,0,0,1-1.331-.074,25.412,25.412,0,0,1-6.846-1.857,1.911,1.911,0,0,0-2.274.584,24.937,24.937,0,0,1-5.009,5.028,11.545,11.545,0,0,1-6.957,2.328Z"/><path class="d" d="M49,21.254q-.117.731-.175,1.52Z"/><path class="d" d="M68.069,22.774q-.058-.779-.175-1.52Z"/><path class="d" d="M49,91.739q-.117-.731-.175-1.52Z"/><path class="d" d="M68.069,90.219q-.058.779-.175,1.52Z"/><path class="d" d="M24.43,47.983q-.643-.468-1.227-.935Z"/><path class="d" d="M34.073,31.307c-.487-.234-.974-.429-1.442-.623Z"/><path class="d" d="M24.43,65.01q-.643.468-1.227.935Z"/><path class="d" d="M34.073,81.686c-.487.234-.974.429-1.442.623Z"/><path class="d" d="M93.687,47.048q-.584.468-1.227.935Z"/><path class="d" d="M84.258,30.684c-.468.195-.955.39-1.442.623Z"/><path class="d" d="M93.687,65.945q-.584-.468-1.227-.935Z"/><path class="d" d="M84.258,82.31c-.468-.195-.955-.39-1.442-.623Z"/><path class="d" d="M106.37,58.8a18.79,18.79,0,0,1-12.683,7.15,18.743,18.743,0,0,1,7.423,12.507,3.811,3.811,0,0,1-2.318,4.013,18.847,18.847,0,0,1-14.533-.156,18.858,18.858,0,0,1,.156,14.533A3.836,3.836,0,0,1,80.4,99.161a18.823,18.823,0,0,1-12.507-7.422,18.79,18.79,0,0,1-7.15,12.683,3.8,3.8,0,0,1-4.6,0A18.79,18.79,0,0,1,49,91.739a18.823,18.823,0,0,1-12.507,7.422,3.836,3.836,0,0,1-4.013-2.318,18.858,18.858,0,0,1,.156-14.533,18.858,18.858,0,0,1-14.533.156,3.836,3.836,0,0,1-2.318-4.013A18.743,18.743,0,0,1,23.2,65.945,18.79,18.79,0,0,1,10.52,58.8a3.8,3.8,0,0,1,0-4.6A18.79,18.79,0,0,1,23.2,47.048,18.743,18.743,0,0,1,15.78,34.541,3.836,3.836,0,0,1,18.1,30.528a18.858,18.858,0,0,1,14.533.156,18.858,18.858,0,0,1-.156-14.533,3.836,3.836,0,0,1,4.013-2.318A18.823,18.823,0,0,1,49,21.254a18.79,18.79,0,0,1,7.15-12.683,3.8,3.8,0,0,1,4.6,0,18.79,18.79,0,0,1,7.15,12.683A18.823,18.823,0,0,1,80.4,13.832a3.836,3.836,0,0,1,4.013,2.318,18.858,18.858,0,0,1-.156,14.533,18.846,18.846,0,0,1,14.533-.156,3.811,3.811,0,0,1,2.318,4.013,18.743,18.743,0,0,1-7.423,12.507A18.79,18.79,0,0,1,106.37,54.2a3.8,3.8,0,0,1,0,4.6Z"/><circle class="e" cx="35.067" cy="35.067" r="35.067" transform="translate(23.378 21.43)"/><path class="f" d="M44.808,56.5A7.793,7.793,0,0,1,37.015,48.7a1.948,1.948,0,0,1,3.9,0,3.9,3.9,0,1,0,7.793,0,1.948,1.948,0,0,1,3.9,0A7.793,7.793,0,0,1,44.808,56.5Z"/><path class="f" d="M72.082,56.5A7.793,7.793,0,0,1,64.289,48.7a1.948,1.948,0,1,1,3.9,0,3.9,3.9,0,0,0,7.793,0,1.948,1.948,0,1,1,3.9,0A7.793,7.793,0,0,1,72.082,56.5Z"/><path class="f" d="M58.445,72.082a11.956,11.956,0,0,1-9.312-4.627,1.948,1.948,0,1,1,3.039-2.435,7.793,7.793,0,0,0,12.546,0,1.948,1.948,0,1,1,3.039,2.435,11.956,11.956,0,0,1-9.312,4.627Z"/></g></g></g></svg>