<svg xmlns="http://www.w3.org/2000/svg" xmlns:xlink="http://www.w3.org/1999/xlink" width="113" height="113" viewBox="0 0 113 113"><defs><style>.a{fill:#fff;}.b{clip-path:url(#a);}.c{fill:#ebeff0;}.d{fill:#e54c3c;}.e{fill:#de4d60;}.f{fill:#bf3a2b;}.g{fill:#ff5364;}.h{fill:#bcc2c6;}</style><clipPath id="a"><rect class="a" width="113" height="113" transform="translate(515 439)"/></clipPath></defs><g class="b" transform="translate(-515 -439)"><g transform="translate(516.946 439)"><g transform="translate(-1.948)"><path class="c" d="M111.058,15.472v36.55a3.9,3.9,0,0,1-.754,2.3l-41.29,56.289a5.845,5.845,0,0,1-9.43,0L3.08,33.571a5.845,5.845,0,0,1,.857-7.852L31.429,1.461A5.878,5.878,0,0,1,35.307,0H93.288a5.878,5.878,0,0,1,3.877,1.461l12.573,11.092a3.9,3.9,0,0,1,1.319,2.919Z"/><path class="d" d="M92.7,10.716a4.012,4.012,0,0,0-2.611-.974H38.5a4.012,4.012,0,0,0-2.611.974L14.964,29.109a3.856,3.856,0,0,0-1.227,2.065A3.782,3.782,0,0,0,14.4,34.33L61.14,97.77a3.916,3.916,0,0,0,6.313,0L104.491,47.5l.7-25.8Z"/><path class="e" d="M38.968,9.742V31.174H13.736a3.856,3.856,0,0,1,1.227-2.065L35.889,10.716A4.012,4.012,0,0,1,38.5,9.742Z"/><path class="e" d="M89.625,9.742,64.3,31.174,38.968,9.742Z"/><path class="e" d="M105.193,21.7l-.253,9.469H89.625V9.742h.468a4.012,4.012,0,0,1,2.611.974Z"/><path class="f" d="M104.94,31.174,104.491,47.5,67.453,97.77a3.922,3.922,0,0,1-3.156,1.6L89.625,31.174Z"/><path class="f" d="M64.3,31.174V99.367L38.968,31.174Z"/><path class="g" d="M89.625,9.742V31.174H64.3Z"/><path class="d" d="M89.625,31.174,64.3,99.367V31.174Z"/><path class="g" d="M64.3,31.174H38.968V9.742Z"/><path class="h" d="M111.058,15.472v36.55a3.7,3.7,0,0,1-.175,1.114L97.458,41.29a5.845,5.845,0,0,1-.857-7.852l14.184-19.347a3.659,3.659,0,0,1,.273,1.381Z"/></g></g></g></svg>