<svg xmlns="http://www.w3.org/2000/svg" xmlns:xlink="http://www.w3.org/1999/xlink" width="113" height="113" viewBox="0 0 113 113"><defs><style>.a{fill:#fff;}.b{clip-path:url(#a);}.c{fill:#efc319;}.d{fill:#d15627;}.e{fill:#24ad5f;}.f{fill:#4c8056;}.g{fill:#e47e25;}.h{fill:#ebeff0;}</style><clipPath id="a"><rect class="a" width="113" height="113" transform="translate(249 572)"/></clipPath></defs><g class="b" transform="translate(-249 -572)"><g transform="translate(266.535 572.002)"><g transform="translate(-1.948 -1.948)"><rect class="c" width="62.344" height="11.689" rx="3.896" transform="translate(9.741 72.085)"/><path class="d" d="M53.885,114.947H27.942a5.845,5.845,0,0,1-5.669-4.426L15.586,83.775H66.24L59.554,110.52A5.845,5.845,0,0,1,53.885,114.947Z"/><path class="e" d="M41.517,2.86a1.933,1.933,0,0,0-1.72-.912,17.534,17.534,0,0,0-16.418,17.5V35.068a1.948,1.948,0,0,1-1.948,1.948H15.586a1.948,1.948,0,0,1-1.948-1.948v-3.9a5.845,5.845,0,0,0-6.273-5.825A6.061,6.061,0,0,0,1.948,31.5v9.41a7.793,7.793,0,0,0,7.793,7.793H21.431a1.948,1.948,0,0,1,1.948,1.948V72.085H58.447V58.447A1.948,1.948,0,0,1,60.4,56.5H72.085a7.793,7.793,0,0,0,7.793-7.793V39.3a6.061,6.061,0,0,0-5.416-6.156,5.845,5.845,0,0,0-6.273,5.825v3.9A1.948,1.948,0,0,1,66.24,44.81H60.4a1.948,1.948,0,0,1-1.948-1.948V29.8a1.977,1.977,0,0,0-.31-1.058Z"/><path class="f" d="M31.172,66.24a1.948,1.948,0,0,1-1.948-1.948V60.4a1.948,1.948,0,0,1,3.9,0v3.9A1.948,1.948,0,0,1,31.172,66.24Z"/><path class="f" d="M50.654,66.24a1.948,1.948,0,0,1-1.948-1.948V60.4a1.948,1.948,0,0,1,3.9,0v3.9A1.948,1.948,0,0,1,50.654,66.24Z"/><path class="f" d="M31.172,52.6a1.948,1.948,0,0,1-1.948-1.948v-3.9a1.948,1.948,0,1,1,3.9,0v3.9A1.948,1.948,0,0,1,31.172,52.6Z"/><path class="f" d="M50.654,52.6a1.948,1.948,0,0,1-1.948-1.948v-3.9a1.948,1.948,0,1,1,3.9,0v3.9A1.948,1.948,0,0,1,50.654,52.6Z"/><path class="f" d="M40.913,62.344A1.948,1.948,0,0,1,38.965,60.4V56.5a1.948,1.948,0,0,1,3.9,0v3.9A1.948,1.948,0,0,1,40.913,62.344Z"/><path class="f" d="M40.913,48.706a1.948,1.948,0,0,1-1.948-1.948v-3.9a1.948,1.948,0,0,1,3.9,0v3.9A1.948,1.948,0,0,1,40.913,48.706Z"/><path class="f" d="M31.172,38.965a1.948,1.948,0,0,1-1.948-1.948v-3.9a1.948,1.948,0,1,1,3.9,0v3.9A1.948,1.948,0,0,1,31.172,38.965Z"/><path class="f" d="M50.654,38.965a1.948,1.948,0,0,1-1.948-1.948V35.068a1.948,1.948,0,0,1,3.9,0v1.948A1.948,1.948,0,0,1,50.654,38.965Z"/><path class="f" d="M40.913,35.068a1.948,1.948,0,0,1-1.948-1.948v-3.9a1.948,1.948,0,0,1,3.9,0v3.9A1.948,1.948,0,0,1,40.913,35.068Z"/><path class="f" d="M31.172,25.327a1.948,1.948,0,0,1-1.948-1.948v-3.9a1.948,1.948,0,0,1,3.9,0v3.9A1.948,1.948,0,0,1,31.172,25.327Z"/><path class="g" d="M31.464,83.775l4.072,14.768a3.9,3.9,0,0,1-7.5,2.085L23.379,83.775Z"/><path class="h" d="M58.37,29.224A17.534,17.534,0,0,1,40.913,11.689V2.279a1.57,1.57,0,0,1,.6.584L58.138,28.743A2.221,2.221,0,0,1,58.37,29.224Z"/></g></g></g></svg>