<svg xmlns="http://www.w3.org/2000/svg" xmlns:xlink="http://www.w3.org/1999/xlink" width="113" height="113" viewBox="0 0 113 113"><defs><style>.a{fill:#fff;}.b{clip-path:url(#a);}.c{fill:#603e26;}.d{fill:#ef9272;}.e{fill:#a46a43;}.f{fill:#fcd6ac;}.g{fill:#ef785a;}.h{fill:#bcc2c6;}.i{fill:#ebeff0;}.j{fill:#35495e;}</style><clipPath id="a"><rect class="a" width="113" height="113" transform="translate(515 705)"/></clipPath></defs><g class="b" transform="translate(-515 -705)"><g transform="translate(514.999 704.998)"><path class="c" d="M10.969,40.135A21.431,21.431,0,1,1,41.518,13.95Z"/><path class="c" d="M71.484,13.95a21.431,21.431,0,1,1,30.549,26.185Z"/><path class="d" d="M98.078,33.433a13.638,13.638,0,1,0-19.327-16.6Z"/><path class="d" d="M34.251,16.833a13.638,13.638,0,1,0-19.327,16.6Z"/><path class="e" d="M107.157,62.346c0,.76-.019,1.5-.058,2.26a3.47,3.47,0,0,1-1.013,2.318L61.08,111.93a3.47,3.47,0,0,1-2.318,1.013c-.76.039-1.5.058-2.26.058a50.656,50.656,0,1,1,50.656-50.656Z"/><path class="f" d="M89.311,70.529l-28.5,36.882a49.833,49.833,0,0,0-.662,5.163,3.117,3.117,0,0,1-1.383.37c-.76.039-1.5.058-2.26.058-.429,0-.877-.019-1.305-.039A25.34,25.34,0,0,1,32.732,78.907a1.892,1.892,0,0,0-1.072-2.4A19.483,19.483,0,1,1,54.942,47.3a1.894,1.894,0,0,0,3.117,0A19.483,19.483,0,1,1,89.311,70.529Z"/><path class="g" d="M56.5,101.312c-8.29,0-11.271-4.616-11.394-4.812A1.948,1.948,0,0,1,48.4,94.411c.117.173,2.161,3,8.1,3a12.539,12.539,0,0,0,6.143-1.389,1.948,1.948,0,1,1,1.9,3.4,16.344,16.344,0,0,1-8.039,1.882Z"/><path class="g" d="M50.656,87.674a1.948,1.948,0,0,1-1.742-2.819l1.948-3.9A1.949,1.949,0,0,1,54.35,82.7L52.4,86.6a1.948,1.948,0,0,1-1.746,1.077Z"/><path class="g" d="M62.346,87.674A1.948,1.948,0,0,1,60.592,86.6l-1.948-3.9a1.949,1.949,0,1,1,3.487-1.742l1.948,3.9a1.948,1.948,0,0,1-1.734,2.819Z"/><path class="h" d="M106.728,65.989a2.772,2.772,0,0,1-.643.935L61.08,111.93a2.773,2.773,0,0,1-.935.643A50.656,50.656,0,0,1,106.728,65.989Z"/><circle class="i" cx="11.69" cy="11.69" r="11.69" transform="translate(27.276 46.759)"/><circle class="j" cx="5.845" cy="5.845" r="5.845" transform="translate(33.121 52.604)"/><circle class="a" cx="3.897" cy="3.897" r="3.897" transform="translate(31.173 50.656)"/><circle class="i" cx="11.69" cy="11.69" r="11.69" transform="translate(62.346 46.759)"/><circle class="j" cx="5.845" cy="5.845" r="5.845" transform="translate(68.191 52.604)"/><circle class="a" cx="3.897" cy="3.897" r="3.897" transform="translate(66.243 50.656)"/></g></g></svg>