<svg xmlns="http://www.w3.org/2000/svg" xmlns:xlink="http://www.w3.org/1999/xlink" width="113" height="113" viewBox="0 0 113 113"><defs><style>.a{fill:#fff;}.b{clip-path:url(#a);}.c{fill:#efc319;}.d{fill:#d15627;}.e{fill:#e47e25;}.f{fill:#ebeff0;}.g{fill:#35495e;}.h{fill:#bcc2c6;}</style><clipPath id="a"><rect class="a" width="113" height="113" transform="translate(781 173)"/></clipPath></defs><g class="b" transform="translate(-781 -173)"><g transform="translate(786.847 172.99)"><g transform="translate(-1.948)"><path class="c" d="M103.267,62.35c0,.76-.019,1.5-.057,2.258a3.507,3.507,0,0,1-1.015,2.321L57.187,111.938a3.507,3.507,0,0,1-2.321,1.015c-.758.037-1.5.057-2.258.057A50.659,50.659,0,0,1,39.045,13.538a7.815,7.815,0,0,0,4.111-2.87L50.365,1.12a2.815,2.815,0,0,1,4.481,0l7.209,9.547a7.815,7.815,0,0,0,4.111,2.87,50.659,50.659,0,0,1,37.1,48.812Z"/><path class="d" d="M40.917,37.02a1.948,1.948,0,0,1-.869-.2,22.045,22.045,0,0,0-8.873-1.744A22.066,22.066,0,0,0,22.3,36.826a1.949,1.949,0,0,1-1.736-3.49,25.591,25.591,0,0,1,10.613-2.161,25.591,25.591,0,0,1,10.613,2.153,1.948,1.948,0,0,1-.871,3.692Z"/><path class="d" d="M83.783,37.02a1.948,1.948,0,0,1-.869-.2,23.44,23.44,0,0,0-17.748,0,1.949,1.949,0,1,1-1.736-3.49,27.235,27.235,0,0,1,21.226,0,1.948,1.948,0,0,1-.873,3.694Z"/><path class="e" d="M68.079,83.783H31.331a4.049,4.049,0,0,1-4.053-4.053,4,4,0,0,1,3.507-3.994c4.306-.546,11.593-2.163,16.114-7.073a7.954,7.954,0,0,1,11.418,0c4.52,4.91,11.8,6.576,16.114,7.073a3.986,3.986,0,0,1,1.559.526Z"/><circle class="d" cx="1.948" cy="1.948" r="1.948" transform="translate(46.763 74.041)"/><circle class="d" cx="1.948" cy="1.948" r="1.948" transform="translate(54.556 74.041)"/><path class="d" d="M33.124,83.783c0,8.612,8.729,15.588,19.484,15.588a23.82,23.82,0,0,0,6.859-.994L74.041,83.783Z"/><circle class="f" cx="11.691" cy="11.691" r="11.691" transform="translate(19.484 40.917)"/><circle class="g" cx="5.845" cy="5.845" r="5.845" transform="translate(25.33 46.763)"/><circle class="a" cx="3.897" cy="3.897" r="3.897" transform="translate(23.381 44.814)"/><circle class="f" cx="11.691" cy="11.691" r="11.691" transform="translate(62.35 40.917)"/><circle class="g" cx="5.845" cy="5.845" r="5.845" transform="translate(68.195 46.763)"/><circle class="a" cx="3.897" cy="3.897" r="3.897" transform="translate(66.247 44.814)"/><path class="h" d="M102.839,65.994a2.773,2.773,0,0,1-.643.935L57.187,111.938a2.773,2.773,0,0,1-.935.643A50.659,50.659,0,0,1,102.839,65.994Z"/></g></g></g></svg>