<svg xmlns="http://www.w3.org/2000/svg" xmlns:xlink="http://www.w3.org/1999/xlink" width="113" height="113" viewBox="0 0 113 113"><defs><style>.a{fill:#fff;}.b{clip-path:url(#a);}.c{fill:#ebeff0;}.d{fill:#efc319;}.e{fill:#f19b1f;}.f{fill:#cb4b4c;}</style><clipPath id="a"><rect class="a" width="113" height="113" transform="translate(116 306)"/></clipPath></defs><g class="b" transform="translate(-116 -306)"><g transform="translate(117.95 306)"><g transform="translate(-1.948)"><path class="c" d="M56.554,113a12.132,12.132,0,0,1-2.852-.343,11.838,11.838,0,0,1-8.892-11.565V98.713A11.729,11.729,0,0,1,29.224,87.454V70.818L3.787,28.23A13.053,13.053,0,0,1,9,9.936C16.247,6.234,32.041,0,56.5,0s40.253,6.234,47.491,9.936a13.053,13.053,0,0,1,5.229,18.277L68.472,96.475a1.874,1.874,0,0,0-.283.992v3.844a11.54,11.54,0,0,1-3.507,8.329A11.351,11.351,0,0,1,56.554,113Z"/><path class="d" d="M44.81,84.536a.748.748,0,0,1,.76-.76.719.719,0,0,1,.526.214,1.1,1.1,0,0,1,.156.253l4.968,8.241A9.578,9.578,0,0,1,52.6,97.472V101.1a4.062,4.062,0,0,0,2.942,3.994,3.918,3.918,0,0,0,4.851-3.78V97.472a9.578,9.578,0,0,1,1.383-4.988l40.738-68.248a5.26,5.26,0,0,0-2.085-7.364C93.556,13.346,79.119,7.793,56.5,7.793s-37.056,5.553-43.934,9.079a5.26,5.26,0,0,0-2.085,7.364l25.99,43.524a3.957,3.957,0,0,1,.546,1.987v17.71a4.062,4.062,0,0,0,2.942,3.994,3.918,3.918,0,0,0,4.851-3.78Z"/><path class="e" d="M102.518,24.237l-3.643,6.118c-7.4-4.6-21.353-10.871-42.375-10.871a95.227,95.227,0,0,0-13.424.916,80.69,80.69,0,0,0-11.4,2.377,68.19,68.19,0,0,0-17.554,7.579l-3.643-6.118a5.26,5.26,0,0,1,2.085-7.364C19.444,13.346,33.88,7.793,56.5,7.793s37.056,5.553,43.934,9.079a5.26,5.26,0,0,1,2.085,7.364Z"/><circle class="f" cx="9.741" cy="9.741" r="9.741" transform="translate(60.396 31.172)"/><path class="f" d="M48.707,29.224a9.741,9.741,0,1,1-19.483,0,9.642,9.642,0,0,1,2.455-6.449,80.69,80.69,0,0,1,11.4-2.377A9.7,9.7,0,0,1,48.707,29.224Z"/><path class="f" d="M40.914,56.5a9.741,9.741,0,0,1-5.845,8.923l-9.9-16.6A9.741,9.741,0,0,1,40.914,56.5Z"/><path class="f" d="M75.593,69.339,68.267,81.613a9.741,9.741,0,1,1,7.326-12.274Z"/></g></g></g></svg>