<svg xmlns="http://www.w3.org/2000/svg" xmlns:xlink="http://www.w3.org/1999/xlink" width="113" height="113" viewBox="0 0 113 113"><defs><style>.a{fill:#fff;}.b{clip-path:url(#a);}.c{fill:#ebeff0;}.d{fill:#efc319;}.e{fill:#ff5364;}.f{fill:#de4d60;}.g{fill:#fa7b76;}.h{fill:#bcc2c6;}</style><clipPath id="a"><rect class="a" width="113" height="113" transform="translate(515 173)"/></clipPath></defs><g class="b" transform="translate(-515 -173)"><g transform="translate(515 173)"><path class="c" d="M56.5,113A56.5,56.5,0,1,1,113,56.5c0,.865-.016,1.722-.057,2.578A3.869,3.869,0,0,1,111.8,61.61L61.6,111.8a3.869,3.869,0,0,1-2.533,1.148C58.222,112.984,57.365,113,56.5,113Z"/><path class="d" d="M102.908,62.15a45.122,45.122,0,0,0,.351-5.65A46.759,46.759,0,1,0,56.5,103.259a45.122,45.122,0,0,0,5.65-.351Z"/><path class="e" d="M55.691,40.232a.955.955,0,0,0,1.617,0,14.312,14.312,0,0,1,11.855-7.111c7.5,0,12.664,6.8,12.664,14.867,0,10.817-9.695,18.088-23.987,31.367a1.979,1.979,0,0,1-2.681,0C40.867,66.076,31.172,58.8,31.172,47.988c0-8.062,5.167-14.867,12.664-14.867a14.312,14.312,0,0,1,11.855,7.111Z"/><path class="f" d="M81.828,47.988c0,10.813-9.706,18.1-23.987,31.367a1.972,1.972,0,0,1-2.681,0c-6.8-6.312-12.551-11.263-16.7-15.88A26.469,26.469,0,0,1,48.8,60.007c4.812-.546,8.709-.857,12.333-4.734a19.157,19.157,0,0,0,5.085-12.04,15.7,15.7,0,0,0-2.338-8.962,12.469,12.469,0,0,1,5.28-1.149C76.665,33.121,81.828,39.922,81.828,47.988Z"/><ellipse class="g" cx="7.796" cy="4.873" rx="7.796" ry="4.873" transform="translate(32.825 50.078) rotate(-63.332)"/><path class="h" d="M112.532,60.572A3.443,3.443,0,0,1,111.8,61.6L61.6,111.8a3.443,3.443,0,0,1-1.029.736,56.471,56.471,0,0,1,51.961-51.961Z"/></g></g></svg>