<svg xmlns="http://www.w3.org/2000/svg" xmlns:xlink="http://www.w3.org/1999/xlink" width="113" height="113" viewBox="0 0 113 113"><defs><style>.a{fill:#fff;}.b{clip-path:url(#a);}.c{fill:#e54c3c;}.d{fill:#2c3e50;}.e{fill:#24ad5f;}.f{fill:#4c8056;}.g{fill:#bcc2c6;}.h{fill:#603e26;}.i{fill:#802f34;}</style><clipPath id="a"><rect class="a" width="113" height="113" transform="translate(116 572)"/></clipPath></defs><g class="b" transform="translate(-116 -572)"><g transform="translate(121.847 571.998)"><path class="c" d="M55.961,15.839C81,18.231,100.619,37.487,101.305,61.067a3.9,3.9,0,0,1-.7,2.322l-33.76,48.745a1.917,1.917,0,0,1-1.638.84c-4.424-.164-10.193-1.407-13.234-5.26a1.917,1.917,0,0,0-2.9-.164,19.663,19.663,0,0,1-14.136,5.443C15.724,112.994,0,84.9,0,62.342A45.951,45.951,0,0,1,23.363,22.969Z"/><path class="d" d="M35.067,60.393A7.793,7.793,0,0,1,27.274,52.6a1.948,1.948,0,0,1,3.9,0,3.9,3.9,0,0,0,7.793,0,1.948,1.948,0,0,1,3.9,0A7.793,7.793,0,0,1,35.067,60.393Z"/><path class="d" d="M66.238,60.393A7.793,7.793,0,0,1,58.445,52.6a1.948,1.948,0,0,1,3.9,0,3.9,3.9,0,0,0,7.793,0,1.948,1.948,0,0,1,3.9,0A7.793,7.793,0,0,1,66.238,60.393Z"/><path class="d" d="M50.653,75.979a11.956,11.956,0,0,1-9.312-4.627,1.948,1.948,0,1,1,3.039-2.435,7.793,7.793,0,0,0,12.546,0,1.948,1.948,0,1,1,3.039,2.435A11.956,11.956,0,0,1,50.653,75.979Z"/><path class="e" d="M45.256,27.179c-4.831,2.981-12.02,2.766-18.2-1.091-8.3-5.163-10.818-17.4-11.455-21.8a1.948,1.948,0,0,1,1.344-2.143c4.265-1.352,16.4-4.42,24.7.74a19.749,19.749,0,0,1,7.656,8.552Z"/><path class="f" d="M46.639,21.395a1.962,1.962,0,0,1-.618-.1A76.5,76.5,0,0,1,26.106,11.3a1.948,1.948,0,1,1,2.338-3.117,74.015,74.015,0,0,0,18.815,9.412,1.948,1.948,0,0,1-.62,3.8Z"/><path class="g" d="M101.091,62.4a3.9,3.9,0,0,1-.489.99L66.844,112.135a1.808,1.808,0,0,1-.606.547C66.335,83.752,79.856,68.264,101.091,62.4Z"/><path class="h" d="M52.6,38.788V35.067c0-19.227,8.455-28.264,8.611-28.443A3.885,3.885,0,1,0,55.7,1.149c-.442.44-10.89,11.147-10.89,33.918v3.721Z"/><path class="i" d="M48.7,40.912a30.121,30.121,0,0,1-12.56-2.143,1.948,1.948,0,0,1,1.732-3.489A27.347,27.347,0,0,0,48.7,37.015a27.241,27.241,0,0,0,10.83-1.753,1.948,1.948,0,0,1,1.73,3.491A30.131,30.131,0,0,1,48.7,40.912Z"/></g></g></svg>