<svg xmlns="http://www.w3.org/2000/svg" xmlns:xlink="http://www.w3.org/1999/xlink" width="113" height="113" viewBox="0 0 113 113"><defs><style>.a{fill:#fff;}.b{clip-path:url(#a);}.c{fill:#ebeff0;}.d{fill:#2fa7cb;}.e{fill:#efc319;}.f{fill:#3b96d2;}.g{fill:#67b8cb;}.h{fill:#2980b9;}.i{fill:#bcc2c6;}</style><clipPath id="a"><rect class="a" width="113" height="113" transform="translate(515 306)"/></clipPath></defs><g class="b" transform="translate(-515 -306)"><g transform="translate(515 306)"><path class="c" d="M56.5,113A56.5,56.5,0,1,1,113,56.5c0,.865-.016,1.722-.057,2.578A3.869,3.869,0,0,1,111.8,61.61L61.6,111.8a3.869,3.869,0,0,1-2.533,1.148C58.222,112.984,57.365,113,56.5,113Z"/><path class="d" d="M102.908,62.15A55.1,55.1,0,0,0,92.6,65.891a37.017,37.017,0,0,0-8.962-17.008A36.456,36.456,0,0,0,56.5,37.017c-3.182,0-5.609,1.249-6.994-1.442l-.039-.058a3.507,3.507,0,0,1,1.656-4.793l1.656-.74a3.674,3.674,0,1,0-3.351-6.527L45.434,25.8a4.389,4.389,0,0,1-6.04-5.9A19.422,19.422,0,0,1,56.5,9.741,46.772,46.772,0,0,1,102.908,62.15Z"/><path class="d" d="M77.308,76.567A56.422,56.422,0,0,0,62.15,102.908a45.122,45.122,0,0,1-5.65.351A46.632,46.632,0,0,1,17.223,81.828h.312c8.767,0,8.767-7.793,17.534-7.793s8.767,7.793,17.534,7.793,8.767-7.793,17.534-7.793a8.581,8.581,0,0,1,1.013.058A10.47,10.47,0,0,1,77.308,76.567Z"/><path class="e" d="M70.138,74.034c-8.767,0-8.767,7.793-17.534,7.793s-8.767-7.793-17.534-7.793S26.3,81.828,17.534,81.828h-.312A46.71,46.71,0,0,1,55.117,9.78,19.457,19.457,0,0,0,39.394,19.892a4.286,4.286,0,0,0-.546,2.1,4.389,4.389,0,0,0,6.585,3.8l3.994-2.338a3.784,3.784,0,0,1,1.851-.507,3.676,3.676,0,0,1,1.5,7.033l-1.656.74a3.507,3.507,0,0,0-1.656,4.793l.039.058a3.3,3.3,0,0,0,3.487,1.734,20.95,20.95,0,0,1,3.507-.292c.409,0,.818.029,1.247.039a4.8,4.8,0,0,1,.507.039c.409.039.838.078,1.266.136A21.431,21.431,0,0,1,71.151,74.093a8.581,8.581,0,0,0-1.013-.058Z"/><path class="f" d="M102.908,62.15,62.15,102.908A56.365,56.365,0,0,1,92.6,65.891,55.1,55.1,0,0,1,102.908,62.15Z"/><path class="g" d="M85.724,32.7a1.948,1.948,0,0,1-1.461-.66A37.233,37.233,0,0,0,63.9,20.227a1.949,1.949,0,1,1,.779-3.819,41.169,41.169,0,0,1,22.5,13.053,1.948,1.948,0,0,1-1.463,3.24Z"/><path class="g" d="M77.931,36.254a1.948,1.948,0,0,1-1.27-.471,29.949,29.949,0,0,0-12.81-6.609,1.948,1.948,0,1,1,.885-3.8A34.3,34.3,0,0,1,79.2,32.828a1.948,1.948,0,0,1-1.27,3.425Z"/><path class="g" d="M38.966,86.359a1.923,1.923,0,0,1-.662-.117,10.26,10.26,0,0,0-6.468,0,1.948,1.948,0,1,1-1.325-3.665,14.107,14.107,0,0,1,9.118,0,1.948,1.948,0,0,1-.662,3.782Z"/><path class="g" d="M56.5,94.152a1.923,1.923,0,0,1-.662-.117,10.26,10.26,0,0,0-6.468,0,1.948,1.948,0,1,1-1.325-3.665,14.107,14.107,0,0,1,9.118,0,1.948,1.948,0,0,1-.662,3.782Z"/><path class="h" d="M92.6,65.891A56.366,56.366,0,0,0,77.308,76.567a10.47,10.47,0,0,0-6.157-2.474A21.431,21.431,0,0,0,59.52,37.232c-.429-.058-.857-.1-1.266-.136A36.953,36.953,0,0,1,91.8,62.949a29.74,29.74,0,0,1,.8,2.942Z"/><path class="i" d="M112.532,60.572A3.443,3.443,0,0,1,111.8,61.6L61.6,111.8a3.443,3.443,0,0,1-1.029.736A56.364,56.364,0,0,1,92.6,65.891a55.1,55.1,0,0,1,10.306-3.741A56.054,56.054,0,0,1,112.532,60.572Z"/><ellipse class="h" cx="9.878" cy="4.871" rx="9.878" ry="4.871" transform="translate(42.726 72.086)"/><path class="h" d="M27.412,76.957c-2.63,2.221-4.754,4.871-9.878,4.871h-.312a46.731,46.731,0,0,1-4.442-8.748,10.76,10.76,0,0,1,4.754-.994c5.124,0,7.248,2.65,9.878,4.871Z"/></g></g></svg>