<svg xmlns="http://www.w3.org/2000/svg" xmlns:xlink="http://www.w3.org/1999/xlink" width="113" height="113" viewBox="0 0 113 113"><defs><style>.a{fill:#fff;}.b{clip-path:url(#a);}.c{fill:#ebeff0;}.d{fill:#884b9c;}.e{fill:#5d4c72;}.f{fill:#ff5364;}.g{fill:#efc319;}.h{fill:#e47e25;}.i{fill:#bcc2c6;}</style><clipPath id="a"><rect class="a" width="113" height="113" transform="translate(382 173)"/></clipPath></defs><g class="b" transform="translate(-382 -173)"><g transform="translate(387.844 172.999)"><path class="c" d="M101.272,76.782c.039,6.994-1.208,13.4-6.137,18.353A21.6,21.6,0,0,1,79.8,101.487c-.623,0-1.227-.019-1.812-.078a2.017,2.017,0,0,0-1.851.916,23.4,23.4,0,0,1-39.278,0,2.017,2.017,0,0,0-1.851-.916c-.584.058-1.188.078-1.792.078a21.683,21.683,0,0,1-21.626-23.5,2.016,2.016,0,0,0-.916-1.851,23.4,23.4,0,0,1,0-39.278,2.016,2.016,0,0,0,.916-1.851A21.683,21.683,0,0,1,33.2,11.514c.623,0,1.227.019,1.812.078a2.016,2.016,0,0,0,1.851-.916,23.4,23.4,0,0,1,39.278,0,2.016,2.016,0,0,0,1.851.916c.584-.058,1.188-.078,1.792-.078a21.573,21.573,0,0,1,15.353,6.351c4.929,4.949,6.176,9.41,6.137,18.353Z"/><path class="d" d="M71.99,21.685A13.921,13.921,0,0,1,91.317,41.012V71.99A13.921,13.921,0,0,1,71.99,91.317H41.012A13.921,13.921,0,0,1,21.685,71.99V41.012A13.921,13.921,0,0,1,41.012,21.685Z"/><path class="e" d="M101.311,37.018a.068.068,0,0,0-.039.019Z"/><path class="e" d="M101.311,75.984a.068.068,0,0,1-.039-.019Z"/><path class="f" d="M95.973,42.259a15.621,15.621,0,0,0-7.91-1.266L70.314,42.785l-.1-.1,1.792-17.749a14.265,14.265,0,0,0,.078-1.578,15.586,15.586,0,1,0-31.095,1.578l1.792,17.749-.1.1L24.938,40.992a14.265,14.265,0,0,0-1.578-.078,15.586,15.586,0,1,0,1.578,31.095l17.749-1.792.1.1L40.992,88.063a14.265,14.265,0,0,0-.078,1.578,15.586,15.586,0,1,0,31.095-1.578L70.217,70.314l.1-.1,17.749,1.792a14.265,14.265,0,0,0,1.578.078,15.7,15.7,0,0,0,6.332-1.344Z"/><circle class="g" cx="19.483" cy="19.483" r="19.483" transform="translate(37.018 37.018)"/><circle class="h" cx="1.948" cy="1.948" r="1.948" transform="translate(46.759 46.759)"/><circle class="h" cx="1.948" cy="1.948" r="1.948" transform="translate(46.759 62.345)"/><circle class="h" cx="1.948" cy="1.948" r="1.948" transform="translate(62.345 62.345)"/><circle class="h" cx="1.948" cy="1.948" r="1.948" transform="translate(62.345 46.759)"/><circle class="h" cx="1.948" cy="1.948" r="1.948" transform="translate(50.656 54.552)"/><circle class="h" cx="1.948" cy="1.948" r="1.948" transform="translate(54.552 42.862)"/><circle class="h" cx="1.948" cy="1.948" r="1.948" transform="translate(54.552 66.242)"/><circle class="h" cx="1.948" cy="1.948" r="1.948" transform="translate(58.424 54.552)"/><circle class="h" cx="1.948" cy="1.948" r="1.948" transform="translate(66.242 54.552)"/><circle class="h" cx="1.948" cy="1.948" r="1.948" transform="translate(42.862 54.552)"/><path class="i" d="M101.272,37.037V75.964A23.27,23.27,0,0,1,91.57,56.5a23.27,23.27,0,0,1,9.7-19.463Z"/></g></g></svg>