<svg xmlns="http://www.w3.org/2000/svg" xmlns:xlink="http://www.w3.org/1999/xlink" width="113" height="113" viewBox="0 0 113 113"><defs><style>.a{fill:#fff;}.b{clip-path:url(#a);}.c{fill:#26b899;}.d{fill:#3f5c6c;}.e{fill:#547580;}.f{fill:#bcc2c6;}</style><clipPath id="a"><rect class="a" width="113" height="113" transform="translate(648 306)"/></clipPath></defs><g class="b" transform="translate(-648 -306)"><g transform="translate(655.792 306)"><path class="c" d="M97.342,53.067C95.024,97.586,56.818,110.8,49.82,112.841a3.817,3.817,0,0,1-2.182,0C40.409,110.715,0,96.728,0,48.762A48.734,48.734,0,0,1,50.579.035c1.208.049,2.4.136,3.581.275a1.987,1.987,0,0,1,1.247.66l41.5,46.88a1.979,1.979,0,0,1,.5,1.264c.027,1.317.01,2.634-.062,3.953Z"/><path class="d" d="M39.5,84.306c-3.9,3.9-14.916-.766-22.066-7.916s-9.792-16.136-5.89-20.036,12.859-1.282,20.04,5.888S43.4,80.406,39.5,84.306Z"/><path class="d" d="M57.917,84.306c3.9,3.9,14.916-.766,22.068-7.916s9.79-16.136,5.89-20.036S73,55.072,65.835,62.242,54.016,80.406,57.917,84.306Z"/><path class="e" d="M26.076,69.7a1.948,1.948,0,0,1-1.364-.557,17.946,17.946,0,0,0-7.626-4.74,1.949,1.949,0,0,1,.9-3.793,21.971,21.971,0,0,1,9.457,5.751A1.948,1.948,0,0,1,26.076,69.7Z"/><path class="e" d="M71.344,69.7a1.948,1.948,0,0,1-1.364-3.339,21.949,21.949,0,0,1,9.453-5.751,1.949,1.949,0,0,1,.9,3.793,17.924,17.924,0,0,0-7.624,4.74,1.937,1.937,0,0,1-1.364.557Z"/><path class="a" d="M48.707,103.259a7.793,7.793,0,0,1-7.793-7.793,1.948,1.948,0,0,1,1.948-1.948h11.69A1.948,1.948,0,0,1,56.5,95.466,7.793,7.793,0,0,1,48.707,103.259Z"/><path class="f" d="M97.219,48.356C73.606,45.22,56.052,24.665,54.942.584L54.961.6a1.6,1.6,0,0,1,.446.366l41.5,46.88a1.559,1.559,0,0,1,.314.507Z"/></g></g></svg>