<svg xmlns="http://www.w3.org/2000/svg" xmlns:xlink="http://www.w3.org/1999/xlink" width="113" height="113" viewBox="0 0 113 113"><defs><style>.a{fill:#fff;}.b{clip-path:url(#a);}.c{fill:#efc319;}.d{fill:#884b9c;}.e{fill:#bcc2c6;}</style><clipPath id="a"><rect class="a" width="113" height="113" transform="translate(382 572)"/></clipPath></defs><g class="b" transform="translate(-382 -572)"><g transform="translate(382 572)"><path class="c" d="M56.5,113A56.5,56.5,0,1,1,113,56.5c0,.865-.016,1.722-.057,2.578A3.869,3.869,0,0,1,111.8,61.61L61.6,111.8a3.869,3.869,0,0,1-2.533,1.148C58.222,112.984,57.365,113,56.5,113Z"/><path class="d" d="M56.5,9.741a46.759,46.759,0,1,0,16.755,90.4l26.886-26.886A46.732,46.732,0,0,0,56.5,9.741ZM24.918,79.314A38.965,38.965,0,0,1,50.3,18.022a1.948,1.948,0,0,1,2.3,1.929V54.084a1.966,1.966,0,0,1-.565,1.364L27.919,79.587a1.964,1.964,0,0,1-3-.273Zm54.4,8.767a38.917,38.917,0,0,1-14.3,6.449,39.587,39.587,0,0,1-8.514.935,38.821,38.821,0,0,1-22.814-7.384,1.977,1.977,0,0,1-.273-3l21.7-21.7a1.964,1.964,0,0,1,2.767,0l21.7,21.7a1.978,1.978,0,0,1-.273,3Zm8.767-8.767a1.964,1.964,0,0,1-3,.273L60.962,55.448a1.966,1.966,0,0,1-.565-1.364V19.95a1.948,1.948,0,0,1,2.3-1.929A38.965,38.965,0,0,1,95.466,56.5a39.587,39.587,0,0,1-.935,8.514,38.917,38.917,0,0,1-6.449,14.3Z"/><path class="e" d="M112.532,60.572A3.443,3.443,0,0,1,111.8,61.6L61.6,111.8a3.443,3.443,0,0,1-1.029.736A56.26,56.26,0,0,1,74.307,79.8,50.621,50.621,0,0,1,79.8,74.288a56.213,56.213,0,0,1,32.731-13.716Z"/></g></g></svg>