<svg xmlns="http://www.w3.org/2000/svg" xmlns:xlink="http://www.w3.org/1999/xlink" width="113" height="113" viewBox="0 0 113 113"><defs><style>.a{fill:#fff;}.b{clip-path:url(#a);}.c{fill:#ebeff0;}.d{fill:#3b96d2;}.e{fill:#afd2ef;}.f{fill:#285680;}</style><clipPath id="a"><rect class="a" width="113" height="113" transform="translate(515 572)"/></clipPath></defs><g class="b" transform="translate(-515 -572)"><g transform="translate(528.635 572)"><path class="c" d="M42.891,113C19.241,113,0,93.323,0,69.117,0,49.077,10.716,37.3,20.161,26.908c5.913-6.5,11.495-12.64,13.8-20.2a9.291,9.291,0,0,1,17.852,0c2.3,7.555,7.891,13.7,13.8,20.2C73.269,35.32,81.937,44.853,84.8,59.093a46.221,46.221,0,0,1-8.286,36.9A42.11,42.11,0,0,1,45.64,112.914c-.922.056-1.841.086-2.749.086Z"/><path class="d" d="M7.793,69.152c0-29.1,26.824-37.9,33.62-60.223a1.529,1.529,0,0,1,2.956,0c6.086,20,28.25,29.146,32.8,51.77,4.358,21.7-10.493,43.057-32.016,44.44A35.515,35.515,0,0,1,7.793,69.152Z"/><path class="e" d="M15.6,71.235a1.837,1.837,0,0,1-1.948-1.812v-.271c0-.614.014-1.214.041-1.806a1.989,1.989,0,0,1,2.034-1.859,1.948,1.948,0,0,1,1.859,2.036c-.025.534-.037,1.075-.037,1.629A2.067,2.067,0,0,1,15.6,71.235Z"/><path class="e" d="M17.546,59.647a1.923,1.923,0,0,1-.662-.117,1.948,1.948,0,0,1-1.169-2.5c2.891-7.968,8.508-14.162,14.456-20.72A113.013,113.013,0,0,0,41.263,22.721a1.95,1.95,0,1,1,3.258,2.143A116.206,116.206,0,0,1,33.06,38.932c-5.933,6.54-11.053,12.186-13.683,19.434a1.948,1.948,0,0,1-1.831,1.28Z"/><path class="f" d="M29.246,74.035a7.8,7.8,0,0,1-7.793-7.793,1.948,1.948,0,1,1,3.9,0,3.9,3.9,0,1,0,7.793,0,1.948,1.948,0,1,1,3.9,0A7.8,7.8,0,0,1,29.246,74.035Z"/><path class="f" d="M56.541,74.035a7.8,7.8,0,0,1-7.793-7.793,1.948,1.948,0,1,1,3.9,0,3.9,3.9,0,0,0,7.8,0,1.948,1.948,0,1,1,3.9,0A7.8,7.8,0,0,1,56.541,74.035Z"/><path class="f" d="M42.893,89.621a11.966,11.966,0,0,1-9.319-4.627,1.948,1.948,0,1,1,3.039-2.435,7.811,7.811,0,0,0,12.559,0,1.948,1.948,0,0,1,3.039,2.435,11.966,11.966,0,0,1-9.319,4.627Z"/></g></g></svg>