<svg xmlns="http://www.w3.org/2000/svg" xmlns:xlink="http://www.w3.org/1999/xlink" width="113" height="113" viewBox="0 0 113 113"><defs><style>.a{fill:#fff;}.b{clip-path:url(#a);}.c{fill:#83b4ca;}.d{fill:#9ec8d2;}.e{fill:#f2d45b;}.f{fill:#3f5c6c;}.g{fill:#547580;}.h{fill:#4c8056;}.i{fill:#bcc2c6;}.j{fill:#24ad5f;}.k{fill:#f8e9af;}</style><clipPath id="a"><rect class="a" width="113" height="113" transform="translate(249 306)"/></clipPath></defs><g class="b" transform="translate(-249 -306)"><g transform="translate(266.543 306.008)"><g transform="translate(-1.948 -1.948)"><path class="c" d="M60.392,95.459H21.43a3.9,3.9,0,0,1,0-7.793H60.392a3.9,3.9,0,0,1,0,7.793Z"/><path class="d" d="M52.6,95.459H29.222a3.9,3.9,0,0,1,0-7.793H52.6a3.9,3.9,0,1,1,0,7.793Z"/><path class="c" d="M58.444,103.251H23.378a3.9,3.9,0,0,1,0-7.793H58.444a3.9,3.9,0,0,1,0,7.793Z"/><path class="d" d="M48.7,103.251H33.118a3.9,3.9,0,0,1,0-7.793H48.7a3.9,3.9,0,0,1,0,7.793Z"/><path class="e" d="M79.075,42.2a3.867,3.867,0,0,1,.779,2.7,38.8,38.8,0,0,1-13.349,25.5,22.854,22.854,0,0,0-7.929,17.261H23.428a22.5,22.5,0,0,0-2.09-9.487,23.111,23.111,0,0,0-5.844-7.773A38.939,38.939,0,0,1,43.112,2a37.759,37.759,0,0,1,4.968.584,3.867,3.867,0,0,1,2.353,1.5Z"/><path class="f" d="M56.5,103.251c-1.091,6.608-7.654,11.689-15.585,11.689s-14.494-5.081-15.585-11.689Z"/><path class="g" d="M50.652,103.251c-.682,6.608-4.783,11.689-9.741,11.689s-9.059-5.081-9.741-11.689Z"/><path class="h" d="M40.911,85.718a1.948,1.948,0,0,1-1.948-1.948V54.686a7.845,7.845,0,0,0-2.283-5.511l-1.042-1.04a1.949,1.949,0,1,1,2.755-2.759l1.042,1.042a11.778,11.778,0,0,1,3.425,8.268V83.77A1.948,1.948,0,0,1,40.911,85.718Z"/><path class="i" d="M79.659,43.307A39.331,39.331,0,0,1,49.541,5.435c0-.74.019-1.422.058-2.143a3.6,3.6,0,0,1,.834.8L79.071,42.2A4.329,4.329,0,0,1,79.659,43.307Z"/><path class="j" d="M33.118,77.926h1.948a5.844,5.844,0,0,1,5.844,5.844v3.9h-3.9a5.844,5.844,0,0,1-5.844-5.844V79.874A1.948,1.948,0,0,1,33.118,77.926Z"/><path class="j" d="M46.755,77.926h3.9v3.9a5.844,5.844,0,0,1-5.844,5.844H42.859a1.948,1.948,0,0,1-1.948-1.948V83.77A5.844,5.844,0,0,1,46.755,77.926Z" transform="translate(91.563 165.592) rotate(180)"/><path class="j" d="M33.118,58.444h1.948a5.844,5.844,0,0,1,5.844,5.844v3.9h-3.9A5.844,5.844,0,0,1,31.17,62.34V60.392A1.948,1.948,0,0,1,33.118,58.444Z"/><path class="j" d="M46.755,58.444h3.9v3.9a5.844,5.844,0,0,1-5.844,5.844H42.859a1.948,1.948,0,0,1-1.948-1.948V64.289A5.844,5.844,0,0,1,46.755,58.444Z" transform="translate(91.563 126.629) rotate(180)"/><path class="j" d="M27.274,35.067h3.9a5.844,5.844,0,0,1,5.844,5.844v3.9a1.948,1.948,0,0,1-1.948,1.948h-3.9a5.844,5.844,0,0,1-5.844-5.844v-3.9A1.948,1.948,0,0,1,27.274,35.067Z"/><ellipse class="k" cx="13.356" cy="7.184" rx="13.356" ry="7.184" transform="matrix(0.651, -0.759, 0.759, 0.651, 3.905, 27.42)"/><ellipse class="k" cx="4.87" cy="6.818" rx="4.87" ry="6.818" transform="translate(3.896 35.067)"/></g></g></g></svg>